<?xml version="1.0" encoding="utf-8"?>
<!-- Generator: Adobe Illustrator 23.0.3, SVG Export Plug-In . SVG Version: 6.00 Build 0)  -->
<svg version="1.1" id="Capa_1" xmlns="http://www.w3.org/2000/svg" xmlns:xlink="http://www.w3.org/1999/xlink" x="0px" y="0px"
	 viewBox="0 0 231 32" style="enable-background:new 0 0 231 32;" xml:space="preserve">
<style type="text/css">
	.st0{fill:#FFFFFF;}
</style>
<g>
	<g>
		<g>
			<g>
				<path class="st0" d="M32.88,17.47c0.45,1.09,0.03,2.62-0.71,3.5c-1.62,1.91-3.93,2.62-6.05,3.67c-2,0.99-3.94,2.03-5.44,3.76
					c-0.58,0.67-1.39,1.14-2.13,1.73c-0.11-0.08-0.26-0.2-0.43-0.33c0.47-1.53,1.04-3,2.05-4.27c1.06-1.33,2.05-2.72,3.2-3.96
					c1.69-1.83,3.99-2.83,6.08-4.09c0.47-0.28,0.96-0.52,1.42-0.8c0.53-0.33,1.06-0.47,1.63-0.23
					C32.63,16.8,32.75,17.14,32.88,17.47"/>
				<path class="st0" d="M29.7,12.39c0.13,0.28,0.17,0.71,0.05,0.98c-0.2,0.45-0.5,0.88-0.87,1.2c-0.82,0.72-1.63,1.48-2.57,2.01
					c-2.22,1.26-4.13,2.87-5.99,4.59c-1.77,1.63-3.49,3.36-5.46,4.71c-1.73,1.19-3.28,2.48-4.57,4.11c-0.27,0.34-0.54,0.67-0.81,1
					c-0.02-0.07-0.04-0.13-0.06-0.2c0.04-0.65,0.09-1.3,0.14-1.94c0-0.07,0.05-0.13,0.08-0.19c2.01-4.2,4.19-8.35,7.66-11.51
					c3.12-2.84,6.49-5.42,10.23-7.45c0.5-0.27,0.73-0.22,0.97,0.33C28.83,10.85,29.33,11.59,29.7,12.39"/>
				<path class="st0" d="M26.66,4.76c0.62,0.84,0.37,1.82-0.47,2.39c-2.85,1.95-5.8,3.76-8.5,5.9c-4.72,3.72-9.6,7.27-13.77,11.65
					c-0.72,0.75-1.42,1.52-2.14,2.27c-0.07-0.02-0.14-0.04-0.21-0.06c0-0.53,0-1.07,0-1.6c0-0.44,0.11-0.93-0.03-1.33
					c-0.3-0.88-0.21-1.72,0.15-2.52c0.42-0.93,0.85-1.86,1.38-2.73c4.2-6.85,9.65-12.48,16.44-16.79c0.8-0.51,1.7-0.86,2.56-1.28
					c0.34-0.16,0.65-0.2,0.86,0.22c0.06,0.11,0.2,0.27,0.29,0.26c0.7-0.06,1.29,0.2,1.82,0.6c0.27,0.2,0.63,0.44,0.69,0.72
					C25.9,3.31,26.14,4.06,26.66,4.76"/>
			</g>
		</g>
	</g>
	<g>
		<path class="st0" d="M46.66,12.01c-1.21,0-2.18-0.37-2.89-1.1c-0.71-0.73-1.07-1.77-1.07-3.1c0-1.28,0.36-2.31,1.07-3.07
			c0.72-0.76,1.68-1.15,2.9-1.15c0.32,0,0.61,0.02,0.87,0.05c0.26,0.04,0.5,0.09,0.74,0.15c0.18,0.05,0.39,0.13,0.6,0.22
			c0.22,0.09,0.39,0.18,0.53,0.24V6.2H49.2c-0.1-0.09-0.22-0.19-0.37-0.31c-0.15-0.12-0.32-0.24-0.51-0.36
			c-0.19-0.12-0.4-0.21-0.62-0.3c-0.23-0.08-0.46-0.12-0.71-0.12c-0.29,0-0.56,0.05-0.81,0.14c-0.24,0.09-0.48,0.25-0.7,0.48
			c-0.2,0.21-0.37,0.49-0.5,0.84c-0.13,0.35-0.19,0.77-0.19,1.25c0,0.5,0.07,0.93,0.2,1.27c0.13,0.34,0.31,0.62,0.53,0.83
			c0.21,0.2,0.45,0.35,0.7,0.44c0.26,0.09,0.52,0.14,0.78,0.14c0.27,0,0.52-0.04,0.77-0.13c0.24-0.09,0.45-0.19,0.61-0.3
			c0.18-0.11,0.34-0.23,0.48-0.34C49,9.6,49.12,9.5,49.23,9.41h0.18v1.9c-0.15,0.07-0.32,0.15-0.52,0.24
			c-0.2,0.09-0.4,0.16-0.6,0.23c-0.25,0.08-0.49,0.13-0.71,0.17C47.36,11.99,47.05,12.01,46.66,12.01z"/>
		<path class="st0" d="M53.88,12.02c-1.09,0-1.93-0.26-2.51-0.79c-0.59-0.53-0.88-1.29-0.88-2.31V3.75h2.03V8.8
			c0,0.56,0.11,0.98,0.32,1.26c0.21,0.28,0.56,0.41,1.04,0.41c0.47,0,0.81-0.13,1.03-0.4c0.22-0.26,0.33-0.69,0.33-1.27V3.75h2.03
			v5.17c0,1-0.29,1.76-0.86,2.3C55.85,11.75,55,12.02,53.88,12.02z"/>
		<path class="st0" d="M58.84,11.85v-8.1h5.48v1.55h-3.45v1.42h3.18v1.55h-3.18v2.05h3.45v1.55H58.84z"/>
		<path class="st0" d="M72.63,11.85h-1.96L67.55,6.2v5.65h-1.86v-8.1h2.5l2.58,4.64V3.75h1.86V11.85z"/>
		<path class="st0" d="M75.83,11.85V5.29h-2.39V3.75h6.82v1.55h-2.39v6.56H75.83z"/>
		<path class="st0" d="M80.23,11.85l2.74-8.1h2.22l2.74,8.1h-2.09l-0.51-1.65h-2.55l-0.51,1.65H80.23z M84.87,8.73l-0.83-2.67
			l-0.83,2.67H84.87z"/>
		<path class="st0" d="M99.23,7.81c0,0.75-0.17,1.43-0.5,2.03c-0.33,0.6-0.75,1.05-1.25,1.37c-0.42,0.27-0.88,0.45-1.37,0.52
			c-0.5,0.08-1.02,0.12-1.58,0.12h-2.54v-8.1h2.51c0.57,0,1.1,0.04,1.6,0.11c0.5,0.07,0.96,0.25,1.4,0.53
			c0.53,0.34,0.95,0.8,1.26,1.38S99.23,7.02,99.23,7.81z M97.14,7.79c0-0.53-0.09-0.99-0.27-1.37c-0.18-0.38-0.47-0.68-0.85-0.89
			c-0.28-0.15-0.56-0.24-0.87-0.25c-0.3-0.01-0.66-0.02-1.09-0.02h-0.04v5.07h0.04c0.46,0,0.84-0.01,1.16-0.02
			c0.31-0.02,0.61-0.11,0.89-0.29c0.33-0.21,0.59-0.5,0.76-0.87C97.05,8.78,97.14,8.32,97.14,7.79z"/>
		<path class="st0" d="M100.43,11.85v-8.1h5.48v1.55h-3.45v1.42h3.18v1.55h-3.18v2.05h3.45v1.55H100.43z"/>
		<path class="st0" d="M109.68,11.85l2.74-8.1h2.22l2.74,8.1h-2.09l-0.51-1.65h-2.55l-0.51,1.65H109.68z M114.32,8.73l-0.83-2.67
			l-0.83,2.67H114.32z"/>
		<path class="st0" d="M123.58,11.85h-5.41v-8.1h2.03v6.56h3.37V11.85z"/>
		<path class="st0" d="M126.11,11.85V5.29h-2.39V3.75h6.82v1.55h-2.39v6.56H126.11z"/>
		<path class="st0" d="M138.75,7.8c0,1.31-0.35,2.34-1.05,3.09c-0.7,0.75-1.66,1.13-2.88,1.13c-1.22,0-2.18-0.38-2.88-1.14
			c-0.7-0.76-1.04-1.79-1.04-3.08c0-1.3,0.35-2.33,1.04-3.09c0.7-0.76,1.66-1.13,2.88-1.13c1.22,0,2.18,0.38,2.88,1.13
			C138.4,5.46,138.75,6.49,138.75,7.8z M136.65,7.8c0-0.48-0.05-0.89-0.15-1.23c-0.1-0.34-0.23-0.62-0.4-0.84
			c-0.17-0.22-0.37-0.38-0.59-0.48c-0.22-0.1-0.45-0.14-0.68-0.14c-0.25,0-0.48,0.04-0.68,0.13c-0.2,0.09-0.4,0.25-0.59,0.48
			c-0.17,0.21-0.3,0.49-0.41,0.84C133.05,6.9,133,7.32,133,7.8c0,0.5,0.05,0.91,0.15,1.24c0.1,0.33,0.23,0.6,0.4,0.82
			c0.17,0.22,0.37,0.39,0.59,0.48c0.22,0.1,0.45,0.14,0.69,0.14c0.24,0,0.47-0.05,0.7-0.16s0.42-0.26,0.58-0.48
			c0.17-0.24,0.31-0.51,0.4-0.82C136.6,8.71,136.65,8.3,136.65,7.8z"/>
		<path class="st0" d="M146.71,12.01c-1.21,0-2.18-0.37-2.89-1.1c-0.71-0.73-1.07-1.77-1.07-3.1c0-1.28,0.36-2.31,1.07-3.07
			c0.72-0.76,1.68-1.15,2.9-1.15c0.32,0,0.61,0.02,0.87,0.05c0.26,0.04,0.5,0.09,0.74,0.15c0.18,0.05,0.39,0.13,0.6,0.22
			c0.22,0.09,0.39,0.18,0.53,0.24V6.2h-0.21c-0.1-0.09-0.22-0.19-0.37-0.31c-0.15-0.12-0.32-0.24-0.51-0.36
			c-0.19-0.12-0.4-0.21-0.62-0.3c-0.23-0.08-0.46-0.12-0.71-0.12c-0.29,0-0.56,0.05-0.81,0.14c-0.24,0.09-0.48,0.25-0.7,0.48
			c-0.2,0.21-0.37,0.49-0.5,0.84c-0.13,0.35-0.19,0.77-0.19,1.25c0,0.5,0.07,0.93,0.2,1.27c0.13,0.34,0.31,0.62,0.53,0.83
			c0.21,0.2,0.45,0.35,0.7,0.44c0.26,0.09,0.52,0.14,0.78,0.14c0.27,0,0.52-0.04,0.77-0.13c0.24-0.09,0.45-0.19,0.61-0.3
			c0.18-0.11,0.34-0.23,0.48-0.34c0.14-0.12,0.26-0.22,0.36-0.31h0.18v1.9c-0.15,0.07-0.32,0.15-0.52,0.24
			c-0.2,0.09-0.4,0.16-0.6,0.23c-0.25,0.08-0.49,0.13-0.71,0.17C147.4,11.99,147.1,12.01,146.71,12.01z"/>
		<path class="st0" d="M158.03,7.8c0,1.31-0.35,2.34-1.05,3.09c-0.7,0.75-1.66,1.13-2.88,1.13c-1.22,0-2.18-0.38-2.88-1.14
			c-0.7-0.76-1.04-1.79-1.04-3.08c0-1.3,0.35-2.33,1.04-3.09c0.7-0.76,1.66-1.13,2.88-1.13c1.22,0,2.18,0.38,2.88,1.13
			C157.68,5.46,158.03,6.49,158.03,7.8z M155.93,7.8c0-0.48-0.05-0.89-0.15-1.23c-0.1-0.34-0.23-0.62-0.4-0.84
			c-0.17-0.22-0.37-0.38-0.59-0.48c-0.22-0.1-0.45-0.14-0.68-0.14c-0.25,0-0.48,0.04-0.68,0.13c-0.2,0.09-0.4,0.25-0.59,0.48
			c-0.17,0.21-0.3,0.49-0.41,0.84c-0.1,0.35-0.16,0.76-0.16,1.25c0,0.5,0.05,0.91,0.15,1.24c0.1,0.33,0.23,0.6,0.4,0.82
			c0.17,0.22,0.37,0.39,0.59,0.48c0.22,0.1,0.45,0.14,0.69,0.14c0.24,0,0.47-0.05,0.7-0.16s0.42-0.26,0.58-0.48
			c0.17-0.24,0.31-0.51,0.4-0.82C155.88,8.71,155.93,8.3,155.93,7.8z"/>
		<path class="st0" d="M161.73,12c-0.62,0-1.16-0.06-1.63-0.18c-0.47-0.12-0.91-0.27-1.31-0.45V9.44h0.18
			c0.41,0.34,0.85,0.61,1.34,0.79c0.49,0.19,0.96,0.28,1.43,0.28c0.12,0,0.27-0.01,0.46-0.04c0.19-0.03,0.34-0.07,0.46-0.12
			c0.14-0.06,0.26-0.15,0.36-0.26c0.1-0.11,0.15-0.26,0.15-0.44c0-0.2-0.08-0.37-0.24-0.5c-0.16-0.13-0.35-0.22-0.57-0.28
			c-0.28-0.07-0.57-0.14-0.88-0.21s-0.61-0.15-0.88-0.24c-0.63-0.22-1.08-0.52-1.35-0.89c-0.27-0.37-0.41-0.84-0.41-1.4
			c0-0.76,0.32-1.37,0.96-1.84c0.64-0.47,1.44-0.7,2.4-0.7c0.48,0,0.96,0.05,1.44,0.15c0.48,0.1,0.9,0.23,1.28,0.4V6h-0.18
			c-0.3-0.26-0.67-0.48-1.1-0.65c-0.43-0.18-0.88-0.27-1.34-0.27c-0.18,0-0.34,0.01-0.48,0.04c-0.14,0.03-0.29,0.07-0.45,0.15
			c-0.13,0.06-0.24,0.14-0.33,0.26c-0.09,0.11-0.14,0.24-0.14,0.38c0,0.21,0.07,0.37,0.22,0.49c0.15,0.12,0.43,0.23,0.85,0.33
			c0.27,0.06,0.53,0.12,0.79,0.18s0.52,0.14,0.81,0.24c0.56,0.2,0.98,0.48,1.25,0.82c0.27,0.34,0.41,0.8,0.41,1.36
			c0,0.81-0.32,1.45-0.95,1.94C163.66,11.75,162.81,12,161.73,12z"/>
		<path class="st0" d="M167.84,11.85V5.29h-2.39V3.75h6.82v1.55h-2.39v6.56H167.84z"/>
		<path class="st0" d="M180.49,7.8c0,1.31-0.35,2.34-1.05,3.09c-0.7,0.75-1.66,1.13-2.88,1.13c-1.22,0-2.18-0.38-2.88-1.14
			c-0.7-0.76-1.04-1.79-1.04-3.08c0-1.3,0.35-2.33,1.04-3.09c0.7-0.76,1.66-1.13,2.88-1.13c1.22,0,2.18,0.38,2.88,1.13
			C180.14,5.46,180.49,6.49,180.49,7.8z M178.39,7.8c0-0.48-0.05-0.89-0.15-1.23c-0.1-0.34-0.23-0.62-0.4-0.84
			c-0.17-0.22-0.37-0.38-0.59-0.48c-0.22-0.1-0.45-0.14-0.68-0.14c-0.25,0-0.48,0.04-0.68,0.13c-0.2,0.09-0.4,0.25-0.59,0.48
			c-0.17,0.21-0.3,0.49-0.41,0.84c-0.1,0.35-0.16,0.76-0.16,1.25c0,0.5,0.05,0.91,0.15,1.24c0.1,0.33,0.23,0.6,0.4,0.82
			c0.17,0.22,0.37,0.39,0.59,0.48c0.22,0.1,0.45,0.14,0.69,0.14c0.24,0,0.47-0.05,0.7-0.16c0.22-0.1,0.42-0.26,0.58-0.48
			c0.17-0.24,0.31-0.51,0.4-0.82C178.34,8.71,178.39,8.3,178.39,7.8z"/>
	</g>
	<g>
		<path class="st0" d="M46.63,21.7H43.8v1.71h2.71v0.72H43.8v2.93H43v-6.08h3.64V21.7z"/>
		<path class="st0" d="M50.86,24.79c0,0.77-0.18,1.36-0.55,1.78c-0.37,0.42-0.86,0.63-1.48,0.63c-0.63,0-1.13-0.22-1.5-0.65
			c-0.36-0.43-0.54-1.02-0.54-1.76c0-0.76,0.19-1.35,0.56-1.77c0.37-0.42,0.87-0.63,1.48-0.63c0.61,0,1.11,0.21,1.48,0.63
			C50.67,23.43,50.86,24.02,50.86,24.79z M50.07,24.79c0-0.59-0.11-1.03-0.32-1.32c-0.21-0.29-0.52-0.43-0.92-0.43
			c-0.4,0-0.71,0.14-0.92,0.43c-0.22,0.29-0.32,0.73-0.32,1.32c0,0.57,0.11,1,0.32,1.3c0.22,0.3,0.52,0.44,0.92,0.44
			c0.39,0,0.7-0.14,0.92-0.43C49.96,25.8,50.07,25.37,50.07,24.79z"/>
		<path class="st0" d="M55.23,27.06h-0.77v-2.59c0-0.21-0.01-0.4-0.03-0.59c-0.02-0.18-0.06-0.33-0.12-0.43
			c-0.06-0.11-0.15-0.2-0.26-0.25c-0.11-0.06-0.26-0.08-0.46-0.08c-0.19,0-0.39,0.05-0.59,0.15c-0.2,0.1-0.4,0.23-0.59,0.4v3.4
			h-0.77V22.5h0.77v0.51c0.23-0.2,0.45-0.36,0.68-0.47c0.22-0.11,0.46-0.16,0.71-0.16c0.45,0,0.8,0.15,1.05,0.44
			c0.25,0.3,0.38,0.72,0.38,1.28V27.06z"/>
		<path class="st0" d="M59.81,27.06h-0.77V26.6c-0.12,0.1-0.22,0.18-0.31,0.25c-0.09,0.07-0.19,0.13-0.31,0.18
			c-0.11,0.05-0.22,0.09-0.34,0.12c-0.12,0.03-0.25,0.04-0.41,0.04c-0.25,0-0.48-0.05-0.69-0.16c-0.21-0.1-0.39-0.25-0.54-0.45
			c-0.15-0.2-0.27-0.45-0.35-0.74c-0.08-0.3-0.12-0.63-0.12-1.02c0-0.4,0.05-0.75,0.16-1.04c0.1-0.29,0.25-0.55,0.43-0.77
			c0.17-0.2,0.37-0.35,0.6-0.47c0.24-0.11,0.48-0.17,0.74-0.17c0.23,0,0.43,0.02,0.6,0.08c0.17,0.05,0.35,0.13,0.53,0.23v-1.98h0.77
			V27.06z M59.05,25.95v-2.63c-0.19-0.09-0.36-0.16-0.51-0.19c-0.15-0.04-0.31-0.05-0.49-0.05c-0.39,0-0.7,0.15-0.93,0.44
			c-0.22,0.3-0.33,0.72-0.33,1.28c0,0.54,0.09,0.95,0.26,1.23c0.17,0.28,0.45,0.43,0.82,0.43c0.2,0,0.4-0.05,0.61-0.14
			C58.68,26.23,58.87,26.11,59.05,25.95z"/>
		<path class="st0" d="M64.67,24.79c0,0.77-0.18,1.36-0.55,1.78c-0.37,0.42-0.86,0.63-1.48,0.63c-0.63,0-1.13-0.22-1.5-0.65
			c-0.36-0.43-0.54-1.02-0.54-1.76c0-0.76,0.19-1.35,0.56-1.77c0.37-0.42,0.87-0.63,1.48-0.63c0.61,0,1.11,0.21,1.48,0.63
			C64.49,23.43,64.67,24.02,64.67,24.79z M63.88,24.79c0-0.59-0.11-1.03-0.32-1.32c-0.21-0.29-0.52-0.43-0.92-0.43
			c-0.4,0-0.71,0.14-0.92,0.43c-0.22,0.29-0.32,0.73-0.32,1.32c0,0.57,0.11,1,0.32,1.3c0.22,0.3,0.52,0.44,0.92,0.44
			c0.39,0,0.7-0.14,0.92-0.43C63.77,25.8,63.88,25.37,63.88,24.79z"/>
		<path class="st0" d="M70.51,27.17c-0.4,0-0.76-0.07-1.1-0.2c-0.33-0.13-0.62-0.33-0.86-0.6c-0.24-0.26-0.43-0.59-0.56-0.99
			c-0.13-0.39-0.2-0.85-0.2-1.36c0-0.51,0.06-0.95,0.19-1.33c0.13-0.38,0.32-0.71,0.57-0.99c0.24-0.27,0.53-0.48,0.86-0.62
			c0.33-0.14,0.7-0.21,1.11-0.21c0.2,0,0.4,0.01,0.57,0.04c0.18,0.03,0.34,0.07,0.5,0.11c0.13,0.04,0.26,0.09,0.4,0.15
			c0.14,0.06,0.27,0.13,0.41,0.2v0.98h-0.07c-0.07-0.07-0.16-0.14-0.27-0.24c-0.11-0.09-0.25-0.18-0.41-0.27
			c-0.16-0.08-0.32-0.15-0.51-0.21c-0.18-0.05-0.39-0.08-0.63-0.08c-0.26,0-0.5,0.05-0.73,0.16c-0.23,0.11-0.43,0.26-0.61,0.47
			c-0.17,0.21-0.3,0.47-0.4,0.78c-0.1,0.31-0.14,0.66-0.14,1.06c0,0.42,0.05,0.77,0.15,1.08c0.1,0.3,0.24,0.55,0.41,0.76
			c0.17,0.2,0.37,0.35,0.6,0.45c0.23,0.1,0.47,0.15,0.73,0.15c0.23,0,0.45-0.03,0.65-0.09c0.2-0.06,0.38-0.13,0.53-0.22
			c0.15-0.08,0.28-0.17,0.39-0.26c0.11-0.09,0.19-0.16,0.26-0.23h0.06v0.96c-0.13,0.06-0.26,0.12-0.38,0.18
			c-0.12,0.06-0.26,0.11-0.43,0.17c-0.18,0.06-0.34,0.1-0.49,0.13C70.95,27.16,70.75,27.17,70.51,27.17z"/>
		<path class="st0" d="M76.84,24.79c0,0.77-0.18,1.36-0.55,1.78c-0.37,0.42-0.86,0.63-1.48,0.63c-0.63,0-1.13-0.22-1.5-0.65
			c-0.36-0.43-0.54-1.02-0.54-1.76c0-0.76,0.19-1.35,0.56-1.77c0.37-0.42,0.87-0.63,1.48-0.63c0.61,0,1.11,0.21,1.48,0.63
			C76.66,23.43,76.84,24.02,76.84,24.79z M76.05,24.79c0-0.59-0.11-1.03-0.32-1.32c-0.21-0.29-0.52-0.43-0.92-0.43
			c-0.4,0-0.71,0.14-0.92,0.43c-0.22,0.29-0.32,0.73-0.32,1.32c0,0.57,0.11,1,0.32,1.3c0.22,0.3,0.52,0.44,0.92,0.44
			c0.39,0,0.7-0.14,0.92-0.43C75.94,25.8,76.05,25.37,76.05,24.79z"/>
		<path class="st0" d="M78.41,27.06h-0.77v-6.35h0.77V27.06z"/>
		<path class="st0" d="M83.29,24.79c0,0.77-0.18,1.36-0.55,1.78c-0.37,0.42-0.86,0.63-1.48,0.63c-0.63,0-1.13-0.22-1.5-0.65
			c-0.36-0.43-0.54-1.02-0.54-1.76c0-0.76,0.19-1.35,0.56-1.77c0.37-0.42,0.87-0.63,1.48-0.63c0.61,0,1.11,0.21,1.48,0.63
			C83.1,23.43,83.29,24.02,83.29,24.79z M82.5,24.79c0-0.59-0.11-1.03-0.32-1.32c-0.21-0.29-0.52-0.43-0.92-0.43
			c-0.4,0-0.71,0.14-0.92,0.43c-0.22,0.29-0.32,0.73-0.32,1.32c0,0.57,0.11,1,0.32,1.3c0.22,0.3,0.52,0.44,0.92,0.44
			c0.39,0,0.7-0.14,0.92-0.43C82.39,25.8,82.5,25.37,82.5,24.79z"/>
		<path class="st0" d="M89.25,27.06v-2.64c0-0.21-0.01-0.4-0.02-0.58c-0.02-0.18-0.05-0.32-0.1-0.42c-0.05-0.11-0.13-0.19-0.23-0.24
			c-0.1-0.05-0.24-0.08-0.41-0.08c-0.16,0-0.33,0.05-0.51,0.14c-0.18,0.1-0.37,0.24-0.56,0.42c0,0.05,0.01,0.1,0.01,0.17
			c0,0.06,0.01,0.14,0.01,0.23v3h-0.77v-2.64c0-0.21-0.01-0.4-0.02-0.58c-0.02-0.18-0.05-0.32-0.1-0.42
			c-0.05-0.11-0.13-0.19-0.23-0.24c-0.1-0.05-0.24-0.08-0.41-0.08c-0.17,0-0.34,0.05-0.52,0.16c-0.18,0.1-0.36,0.24-0.53,0.4v3.4
			h-0.77V22.5h0.77v0.51c0.2-0.2,0.4-0.36,0.6-0.47c0.2-0.11,0.41-0.17,0.65-0.17c0.27,0,0.51,0.06,0.72,0.18
			c0.21,0.12,0.37,0.32,0.48,0.6c0.23-0.26,0.46-0.45,0.68-0.59c0.22-0.13,0.46-0.2,0.72-0.2c0.2,0,0.37,0.03,0.53,0.09
			c0.16,0.06,0.3,0.16,0.42,0.3c0.12,0.14,0.22,0.31,0.28,0.52c0.07,0.21,0.1,0.47,0.1,0.78v3H89.25z"/>
		<path class="st0" d="M94.92,24.71c0,0.75-0.18,1.35-0.54,1.8c-0.36,0.45-0.81,0.68-1.36,0.68c-0.25,0-0.46-0.03-0.63-0.09
			c-0.18-0.06-0.35-0.14-0.52-0.25l-0.05,0.21h-0.72v-6.35h0.77v2.27c0.19-0.17,0.4-0.32,0.63-0.43c0.23-0.11,0.48-0.17,0.77-0.17
			c0.51,0,0.92,0.21,1.22,0.62C94.77,23.41,94.92,23.98,94.92,24.71z M94.12,24.77c0-0.54-0.08-0.96-0.25-1.24
			c-0.17-0.28-0.43-0.42-0.8-0.42c-0.21,0-0.42,0.05-0.63,0.15c-0.21,0.1-0.41,0.22-0.58,0.37v2.61c0.19,0.1,0.36,0.16,0.51,0.2
			c0.15,0.04,0.31,0.06,0.49,0.06c0.39,0,0.7-0.14,0.92-0.42C94.01,25.81,94.12,25.37,94.12,24.77z"/>
		<path class="st0" d="M96.55,21.74h-0.87v-0.8h0.87V21.74z M96.49,27.06h-0.77V22.5h0.77V27.06z"/>
		<path class="st0" d="M100.17,26.58c-0.06,0.05-0.15,0.11-0.25,0.19c-0.1,0.08-0.21,0.15-0.3,0.2c-0.14,0.07-0.27,0.13-0.39,0.16
			c-0.13,0.04-0.3,0.06-0.53,0.06c-0.19,0-0.37-0.04-0.53-0.11c-0.17-0.07-0.32-0.17-0.44-0.3c-0.12-0.13-0.22-0.28-0.29-0.46
			c-0.07-0.18-0.11-0.38-0.11-0.58c0-0.32,0.07-0.58,0.2-0.81s0.34-0.4,0.63-0.53c0.26-0.12,0.56-0.2,0.91-0.24
			c0.35-0.04,0.72-0.08,1.13-0.1v-0.15c0-0.18-0.03-0.32-0.08-0.43c-0.05-0.11-0.13-0.2-0.23-0.26c-0.1-0.06-0.22-0.1-0.36-0.12
			c-0.14-0.02-0.29-0.03-0.44-0.03c-0.18,0-0.38,0.03-0.62,0.08c-0.24,0.05-0.48,0.13-0.72,0.23h-0.04V22.6
			c0.14-0.04,0.34-0.09,0.61-0.13c0.26-0.05,0.52-0.07,0.78-0.07c0.31,0,0.58,0.02,0.79,0.07c0.21,0.05,0.41,0.14,0.58,0.27
			c0.17,0.13,0.29,0.29,0.37,0.49c0.08,0.2,0.12,0.44,0.12,0.73v3.12h-0.76V26.58z M100.17,25.94v-1.27
			c-0.18,0.02-0.41,0.04-0.69,0.07c-0.28,0.03-0.5,0.07-0.68,0.12c-0.2,0.06-0.37,0.16-0.51,0.29c-0.13,0.13-0.2,0.31-0.2,0.54
			c0,0.26,0.07,0.46,0.22,0.59c0.15,0.13,0.36,0.2,0.64,0.2c0.24,0,0.46-0.05,0.66-0.16C99.81,26.22,100,26.09,100.17,25.94z"/>
		<path class="st0" d="M105.59,27.06h-0.77v-2.59c0-0.21-0.01-0.4-0.03-0.59c-0.02-0.18-0.06-0.33-0.12-0.43
			c-0.06-0.11-0.15-0.2-0.26-0.25c-0.11-0.06-0.26-0.08-0.46-0.08c-0.19,0-0.39,0.05-0.59,0.15c-0.2,0.1-0.4,0.23-0.59,0.4v3.4
			h-0.77V22.5h0.77v0.51c0.23-0.2,0.45-0.36,0.68-0.47c0.22-0.11,0.46-0.16,0.71-0.16c0.45,0,0.8,0.15,1.05,0.44
			c0.25,0.3,0.38,0.72,0.38,1.28V27.06z"/>
		<path class="st0" d="M110.42,24.79c0,0.77-0.18,1.36-0.55,1.78c-0.37,0.42-0.86,0.63-1.48,0.63c-0.63,0-1.13-0.22-1.5-0.65
			c-0.36-0.43-0.54-1.02-0.54-1.76c0-0.76,0.19-1.35,0.56-1.77c0.37-0.42,0.87-0.63,1.48-0.63c0.61,0,1.11,0.21,1.48,0.63
			C110.23,23.43,110.42,24.02,110.42,24.79z M109.62,24.79c0-0.59-0.11-1.03-0.32-1.32c-0.21-0.29-0.52-0.43-0.92-0.43
			c-0.4,0-0.71,0.14-0.92,0.43c-0.22,0.29-0.32,0.73-0.32,1.32c0,0.57,0.11,1,0.32,1.3c0.22,0.3,0.52,0.44,0.92,0.44
			c0.39,0,0.7-0.14,0.92-0.43C109.52,25.8,109.62,25.37,109.62,24.79z"/>
		<path class="st0" d="M117.32,27.06h-0.77V26.6c-0.12,0.1-0.22,0.18-0.31,0.25c-0.09,0.07-0.19,0.13-0.31,0.18
			c-0.11,0.05-0.22,0.09-0.34,0.12c-0.12,0.03-0.25,0.04-0.41,0.04c-0.25,0-0.48-0.05-0.69-0.16c-0.21-0.1-0.39-0.25-0.54-0.45
			c-0.15-0.2-0.27-0.45-0.35-0.74c-0.08-0.3-0.12-0.63-0.12-1.02c0-0.4,0.05-0.75,0.16-1.04c0.1-0.29,0.25-0.55,0.43-0.77
			c0.17-0.2,0.37-0.35,0.6-0.47c0.24-0.11,0.48-0.17,0.74-0.17c0.23,0,0.43,0.02,0.6,0.08c0.17,0.05,0.35,0.13,0.53,0.23v-1.98h0.77
			V27.06z M116.56,25.95v-2.63c-0.19-0.09-0.36-0.16-0.51-0.19c-0.15-0.04-0.31-0.05-0.49-0.05c-0.39,0-0.7,0.15-0.93,0.44
			c-0.22,0.3-0.33,0.72-0.33,1.28c0,0.54,0.09,0.95,0.26,1.23c0.17,0.28,0.45,0.43,0.82,0.43c0.2,0,0.4-0.05,0.61-0.14
			C116.19,26.23,116.38,26.11,116.56,25.95z"/>
		<path class="st0" d="M120.41,27.17c-0.73,0-1.29-0.2-1.69-0.61c-0.4-0.41-0.6-0.99-0.6-1.74c0-0.74,0.19-1.33,0.58-1.77
			c0.39-0.44,0.9-0.66,1.53-0.66c0.28,0,0.53,0.04,0.75,0.12c0.22,0.08,0.41,0.21,0.57,0.38c0.16,0.17,0.29,0.39,0.38,0.64
			c0.09,0.25,0.13,0.56,0.13,0.92v0.42h-3.16c0,0.53,0.13,0.94,0.4,1.22c0.27,0.28,0.64,0.42,1.11,0.42c0.17,0,0.33-0.02,0.5-0.06
			c0.16-0.04,0.31-0.09,0.44-0.15c0.14-0.06,0.26-0.12,0.35-0.18c0.09-0.06,0.17-0.11,0.24-0.17h0.04v0.84
			c-0.09,0.04-0.2,0.08-0.33,0.13c-0.13,0.05-0.25,0.09-0.36,0.12c-0.15,0.04-0.28,0.07-0.41,0.09
			C120.75,27.16,120.6,27.17,120.41,27.17z M121.31,24.28c-0.01-0.21-0.03-0.38-0.07-0.53s-0.11-0.28-0.19-0.38
			c-0.09-0.11-0.2-0.2-0.34-0.26c-0.14-0.06-0.31-0.09-0.52-0.09c-0.2,0-0.38,0.03-0.52,0.09c-0.14,0.06-0.27,0.15-0.39,0.27
			c-0.11,0.12-0.2,0.25-0.26,0.4c-0.06,0.15-0.1,0.31-0.11,0.51H121.31z"/>
		<path class="st0" d="M125.5,27.06v-6.08h3.8v0.72h-2.99v1.66h2.79v0.72h-2.79v2.26h2.99v0.72H125.5z"/>
		<path class="st0" d="M133.71,27.06h-0.77v-2.59c0-0.21-0.01-0.4-0.03-0.59c-0.02-0.18-0.06-0.33-0.12-0.43
			c-0.06-0.11-0.15-0.2-0.26-0.25c-0.11-0.06-0.26-0.08-0.46-0.08c-0.19,0-0.39,0.05-0.59,0.15c-0.2,0.1-0.4,0.23-0.59,0.4v3.4
			h-0.77V22.5h0.77v0.51c0.23-0.2,0.45-0.36,0.68-0.47c0.22-0.11,0.46-0.16,0.71-0.16c0.45,0,0.8,0.15,1.05,0.44
			s0.38,0.72,0.38,1.28V27.06z"/>
		<path class="st0" d="M137.19,21.45h-0.04c-0.07-0.02-0.17-0.05-0.29-0.07c-0.13-0.02-0.24-0.03-0.34-0.03
			c-0.32,0-0.55,0.07-0.69,0.22c-0.14,0.15-0.21,0.41-0.21,0.79v0.16h1.27v0.64h-1.24v3.92h-0.77v-3.92h-0.52V22.5h0.52v-0.15
			c0-0.55,0.13-0.97,0.4-1.25c0.26-0.29,0.64-0.43,1.13-0.43c0.14,0,0.28,0.01,0.42,0.02c0.14,0.02,0.26,0.03,0.37,0.05V21.45z"/>
		<path class="st0" d="M139.35,27.17c-0.73,0-1.29-0.2-1.69-0.61c-0.4-0.41-0.6-0.99-0.6-1.74c0-0.74,0.19-1.33,0.58-1.77
			c0.39-0.44,0.9-0.66,1.53-0.66c0.28,0,0.53,0.04,0.75,0.12c0.22,0.08,0.41,0.21,0.57,0.38c0.16,0.17,0.29,0.39,0.38,0.64
			c0.09,0.25,0.13,0.56,0.13,0.92v0.42h-3.16c0,0.53,0.13,0.94,0.4,1.22c0.27,0.28,0.64,0.42,1.11,0.42c0.17,0,0.33-0.02,0.5-0.06
			s0.31-0.09,0.44-0.15c0.14-0.06,0.26-0.12,0.35-0.18c0.09-0.06,0.17-0.11,0.24-0.17h0.04v0.84c-0.09,0.04-0.2,0.08-0.33,0.13
			c-0.13,0.05-0.25,0.09-0.36,0.12c-0.15,0.04-0.28,0.07-0.41,0.09C139.69,27.16,139.54,27.17,139.35,27.17z M140.25,24.28
			c-0.01-0.21-0.03-0.38-0.07-0.53c-0.04-0.15-0.11-0.28-0.19-0.38c-0.09-0.11-0.2-0.2-0.34-0.26c-0.14-0.06-0.31-0.09-0.52-0.09
			c-0.2,0-0.38,0.03-0.52,0.09c-0.14,0.06-0.27,0.15-0.39,0.27c-0.11,0.12-0.2,0.25-0.26,0.4c-0.06,0.15-0.1,0.31-0.11,0.51H140.25z
			"/>
		<path class="st0" d="M144.19,23.33h-0.04c-0.06-0.02-0.12-0.03-0.18-0.03c-0.06,0-0.14-0.01-0.23-0.01
			c-0.21,0-0.41,0.05-0.62,0.13c-0.2,0.09-0.4,0.22-0.58,0.4v3.24h-0.77V22.5h0.77v0.68c0.28-0.25,0.52-0.42,0.73-0.52
			c0.21-0.1,0.41-0.15,0.61-0.15c0.08,0,0.14,0,0.18,0.01c0.04,0,0.08,0.01,0.13,0.02V23.33z"/>
		<path class="st0" d="M149.96,27.06v-2.64c0-0.21-0.01-0.4-0.02-0.58c-0.02-0.18-0.05-0.32-0.1-0.42
			c-0.05-0.11-0.13-0.19-0.23-0.24c-0.1-0.05-0.24-0.08-0.41-0.08c-0.16,0-0.33,0.05-0.51,0.14c-0.18,0.1-0.37,0.24-0.56,0.42
			c0,0.05,0.01,0.1,0.01,0.17c0,0.06,0.01,0.14,0.01,0.23v3h-0.77v-2.64c0-0.21-0.01-0.4-0.02-0.58c-0.02-0.18-0.05-0.32-0.1-0.42
			c-0.05-0.11-0.13-0.19-0.23-0.24c-0.1-0.05-0.24-0.08-0.41-0.08c-0.17,0-0.34,0.05-0.52,0.16c-0.18,0.1-0.36,0.24-0.53,0.4v3.4
			h-0.77V22.5h0.77v0.51c0.2-0.2,0.4-0.36,0.6-0.47c0.2-0.11,0.41-0.17,0.65-0.17c0.27,0,0.51,0.06,0.72,0.18
			c0.21,0.12,0.37,0.32,0.48,0.6c0.23-0.26,0.46-0.45,0.68-0.59c0.22-0.13,0.46-0.2,0.72-0.2c0.2,0,0.37,0.03,0.53,0.09
			c0.16,0.06,0.3,0.16,0.42,0.3c0.12,0.14,0.22,0.31,0.28,0.52c0.07,0.21,0.1,0.47,0.1,0.78v3H149.96z"/>
		<path class="st0" d="M153.78,27.17c-0.73,0-1.29-0.2-1.69-0.61c-0.4-0.41-0.6-0.99-0.6-1.74c0-0.74,0.19-1.33,0.58-1.77
			c0.39-0.44,0.9-0.66,1.53-0.66c0.28,0,0.53,0.04,0.75,0.12c0.22,0.08,0.41,0.21,0.57,0.38c0.16,0.17,0.29,0.39,0.38,0.64
			c0.09,0.25,0.13,0.56,0.13,0.92v0.42h-3.16c0,0.53,0.13,0.94,0.4,1.22c0.27,0.28,0.64,0.42,1.11,0.42c0.17,0,0.33-0.02,0.5-0.06
			s0.31-0.09,0.44-0.15c0.14-0.06,0.26-0.12,0.35-0.18c0.09-0.06,0.17-0.11,0.24-0.17h0.04v0.84c-0.09,0.04-0.2,0.08-0.33,0.13
			c-0.13,0.05-0.25,0.09-0.36,0.12c-0.15,0.04-0.28,0.07-0.41,0.09C154.12,27.16,153.97,27.17,153.78,27.17z M154.68,24.28
			c-0.01-0.21-0.03-0.38-0.07-0.53c-0.04-0.15-0.11-0.28-0.19-0.38c-0.09-0.11-0.2-0.2-0.34-0.26s-0.31-0.09-0.52-0.09
			c-0.2,0-0.38,0.03-0.52,0.09c-0.14,0.06-0.27,0.15-0.39,0.27c-0.11,0.12-0.2,0.25-0.26,0.4c-0.06,0.15-0.1,0.31-0.11,0.51H154.68z
			"/>
		<path class="st0" d="M159.71,27.06h-0.77V26.6c-0.12,0.1-0.22,0.18-0.31,0.25c-0.09,0.07-0.19,0.13-0.31,0.18
			c-0.11,0.05-0.22,0.09-0.34,0.12c-0.12,0.03-0.25,0.04-0.41,0.04c-0.25,0-0.48-0.05-0.69-0.16c-0.21-0.1-0.39-0.25-0.54-0.45
			c-0.15-0.2-0.27-0.45-0.35-0.74c-0.08-0.3-0.12-0.63-0.12-1.02c0-0.4,0.05-0.75,0.16-1.04c0.1-0.29,0.25-0.55,0.43-0.77
			c0.17-0.2,0.37-0.35,0.6-0.47c0.24-0.11,0.48-0.17,0.74-0.17c0.23,0,0.43,0.02,0.6,0.08c0.17,0.05,0.35,0.13,0.53,0.23v-1.98h0.77
			V27.06z M158.94,25.95v-2.63c-0.19-0.09-0.36-0.16-0.51-0.19c-0.15-0.04-0.31-0.05-0.49-0.05c-0.39,0-0.7,0.15-0.93,0.44
			c-0.22,0.3-0.33,0.72-0.33,1.28c0,0.54,0.09,0.95,0.26,1.23c0.17,0.28,0.45,0.43,0.82,0.43c0.2,0,0.4-0.05,0.61-0.14
			C158.57,26.23,158.76,26.11,158.94,25.95z"/>
		<path class="st0" d="M163.37,26.58c-0.06,0.05-0.15,0.11-0.25,0.19c-0.1,0.08-0.21,0.15-0.3,0.2c-0.14,0.07-0.27,0.13-0.39,0.16
			c-0.13,0.04-0.3,0.06-0.53,0.06c-0.19,0-0.37-0.04-0.53-0.11c-0.17-0.07-0.32-0.17-0.44-0.3c-0.12-0.13-0.22-0.28-0.29-0.46
			c-0.07-0.18-0.11-0.38-0.11-0.58c0-0.32,0.07-0.58,0.2-0.81c0.13-0.22,0.34-0.4,0.63-0.53c0.26-0.12,0.56-0.2,0.91-0.24
			c0.35-0.04,0.72-0.08,1.13-0.1v-0.15c0-0.18-0.03-0.32-0.08-0.43c-0.05-0.11-0.13-0.2-0.23-0.26c-0.1-0.06-0.22-0.1-0.36-0.12
			c-0.14-0.02-0.29-0.03-0.44-0.03c-0.18,0-0.38,0.03-0.62,0.08c-0.24,0.05-0.48,0.13-0.72,0.23h-0.05V22.6
			c0.14-0.04,0.34-0.09,0.61-0.13s0.52-0.07,0.78-0.07c0.31,0,0.58,0.02,0.79,0.07s0.41,0.14,0.58,0.27
			c0.17,0.13,0.29,0.29,0.37,0.49c0.08,0.2,0.12,0.44,0.12,0.73v3.12h-0.76V26.58z M163.37,25.94v-1.27
			c-0.18,0.02-0.41,0.04-0.69,0.07c-0.28,0.03-0.5,0.07-0.68,0.12c-0.2,0.06-0.37,0.16-0.51,0.29c-0.13,0.13-0.2,0.31-0.2,0.54
			c0,0.26,0.07,0.46,0.22,0.59c0.15,0.13,0.36,0.2,0.64,0.2c0.24,0,0.46-0.05,0.66-0.16C163.01,26.22,163.2,26.09,163.37,25.94z"/>
		<path class="st0" d="M168.72,27.06h-0.77V26.6c-0.12,0.1-0.22,0.18-0.31,0.25c-0.09,0.07-0.19,0.13-0.31,0.18
			c-0.11,0.05-0.22,0.09-0.34,0.12c-0.12,0.03-0.25,0.04-0.41,0.04c-0.25,0-0.48-0.05-0.69-0.16c-0.21-0.1-0.39-0.25-0.54-0.45
			c-0.15-0.2-0.27-0.45-0.35-0.74c-0.08-0.3-0.12-0.63-0.12-1.02c0-0.4,0.05-0.75,0.16-1.04c0.1-0.29,0.25-0.55,0.43-0.77
			c0.17-0.2,0.37-0.35,0.6-0.47c0.24-0.11,0.48-0.17,0.74-0.17c0.23,0,0.43,0.02,0.6,0.08c0.17,0.05,0.35,0.13,0.53,0.23v-1.98h0.77
			V27.06z M167.95,25.95v-2.63c-0.19-0.09-0.36-0.16-0.51-0.19c-0.15-0.04-0.31-0.05-0.49-0.05c-0.39,0-0.7,0.15-0.93,0.44
			c-0.22,0.3-0.33,0.72-0.33,1.28c0,0.54,0.09,0.95,0.26,1.23c0.17,0.28,0.45,0.43,0.82,0.43c0.2,0,0.4-0.05,0.61-0.14
			C167.58,26.23,167.77,26.11,167.95,25.95z"/>
		<path class="st0" d="M171.8,27.17c-0.73,0-1.29-0.2-1.69-0.61c-0.4-0.41-0.6-0.99-0.6-1.74c0-0.74,0.19-1.33,0.58-1.77
			c0.39-0.44,0.9-0.66,1.53-0.66c0.28,0,0.53,0.04,0.75,0.12c0.22,0.08,0.41,0.21,0.57,0.38c0.16,0.17,0.29,0.39,0.38,0.64
			c0.09,0.25,0.13,0.56,0.13,0.92v0.42h-3.16c0,0.53,0.13,0.94,0.4,1.22c0.27,0.28,0.64,0.42,1.11,0.42c0.17,0,0.33-0.02,0.5-0.06
			s0.31-0.09,0.44-0.15c0.14-0.06,0.26-0.12,0.35-0.18c0.09-0.06,0.17-0.11,0.24-0.17h0.04v0.84c-0.09,0.04-0.2,0.08-0.33,0.13
			c-0.13,0.05-0.25,0.09-0.36,0.12c-0.15,0.04-0.28,0.07-0.41,0.09C172.14,27.16,171.99,27.17,171.8,27.17z M172.7,24.28
			c-0.01-0.21-0.03-0.38-0.07-0.53c-0.04-0.15-0.11-0.28-0.19-0.38c-0.09-0.11-0.2-0.2-0.34-0.26c-0.14-0.06-0.31-0.09-0.52-0.09
			c-0.2,0-0.38,0.03-0.52,0.09c-0.14,0.06-0.27,0.15-0.39,0.27c-0.11,0.12-0.2,0.25-0.26,0.4c-0.06,0.15-0.1,0.31-0.11,0.51H172.7z"
			/>
		<path class="st0" d="M175.46,27.17c-0.3,0-0.59-0.04-0.85-0.12c-0.27-0.08-0.48-0.17-0.66-0.26v-0.86h0.04
			c0.07,0.05,0.14,0.11,0.23,0.17c0.09,0.06,0.21,0.13,0.35,0.2c0.13,0.06,0.27,0.11,0.43,0.16c0.16,0.05,0.32,0.07,0.49,0.07
			c0.12,0,0.25-0.01,0.39-0.04c0.14-0.03,0.24-0.06,0.31-0.11c0.1-0.06,0.16-0.13,0.21-0.2c0.04-0.07,0.06-0.18,0.06-0.32
			c0-0.18-0.05-0.32-0.15-0.41c-0.1-0.09-0.28-0.17-0.53-0.23c-0.1-0.02-0.23-0.05-0.38-0.09c-0.16-0.03-0.3-0.07-0.44-0.11
			c-0.35-0.1-0.6-0.26-0.76-0.47c-0.16-0.21-0.24-0.47-0.24-0.77c0-0.41,0.16-0.75,0.47-1c0.31-0.26,0.72-0.39,1.24-0.39
			c0.25,0,0.51,0.03,0.76,0.09c0.26,0.06,0.47,0.14,0.64,0.24v0.82h-0.04c-0.2-0.16-0.41-0.28-0.66-0.37
			c-0.24-0.09-0.48-0.13-0.73-0.13c-0.25,0-0.47,0.05-0.64,0.16c-0.17,0.11-0.26,0.27-0.26,0.48c0,0.19,0.05,0.33,0.16,0.43
			c0.1,0.09,0.27,0.17,0.5,0.23c0.11,0.03,0.24,0.06,0.38,0.09c0.14,0.03,0.29,0.06,0.44,0.1c0.34,0.08,0.59,0.22,0.76,0.42
			c0.17,0.2,0.25,0.46,0.25,0.8c0,0.2-0.04,0.38-0.12,0.56s-0.19,0.33-0.34,0.45c-0.16,0.14-0.35,0.24-0.55,0.31
			C176.02,27.14,175.77,27.17,175.46,27.17z"/>
		<path class="st0" d="M184.07,27.06h-0.77V26.6c-0.12,0.1-0.22,0.18-0.31,0.25c-0.09,0.07-0.19,0.13-0.31,0.18
			c-0.11,0.05-0.22,0.09-0.34,0.12c-0.12,0.03-0.25,0.04-0.41,0.04c-0.25,0-0.48-0.05-0.69-0.16c-0.21-0.1-0.39-0.25-0.54-0.45
			c-0.15-0.2-0.27-0.45-0.35-0.74c-0.08-0.3-0.12-0.63-0.12-1.02c0-0.4,0.05-0.75,0.16-1.04c0.1-0.29,0.25-0.55,0.43-0.77
			c0.17-0.2,0.37-0.35,0.6-0.47c0.24-0.11,0.48-0.17,0.74-0.17c0.23,0,0.43,0.02,0.6,0.08c0.17,0.05,0.35,0.13,0.53,0.23v-1.98h0.77
			V27.06z M183.31,25.95v-2.63c-0.19-0.09-0.36-0.16-0.51-0.19c-0.15-0.04-0.31-0.05-0.49-0.05c-0.39,0-0.7,0.15-0.93,0.44
			c-0.22,0.3-0.33,0.72-0.33,1.28c0,0.54,0.09,0.95,0.26,1.23c0.17,0.28,0.45,0.43,0.82,0.43c0.2,0,0.4-0.05,0.61-0.14
			C182.94,26.23,183.13,26.11,183.31,25.95z"/>
		<path class="st0" d="M187.16,27.17c-0.73,0-1.29-0.2-1.69-0.61c-0.4-0.41-0.6-0.99-0.6-1.74c0-0.74,0.19-1.33,0.58-1.77
			c0.39-0.44,0.9-0.66,1.53-0.66c0.28,0,0.53,0.04,0.75,0.12c0.22,0.08,0.41,0.21,0.57,0.38c0.16,0.17,0.29,0.39,0.38,0.64
			c0.09,0.25,0.13,0.56,0.13,0.92v0.42h-3.16c0,0.53,0.13,0.94,0.4,1.22c0.27,0.28,0.64,0.42,1.11,0.42c0.17,0,0.33-0.02,0.5-0.06
			s0.31-0.09,0.44-0.15c0.14-0.06,0.26-0.12,0.35-0.18c0.09-0.06,0.17-0.11,0.24-0.17h0.04v0.84c-0.09,0.04-0.2,0.08-0.33,0.13
			c-0.13,0.05-0.25,0.09-0.36,0.12c-0.15,0.04-0.28,0.07-0.41,0.09C187.5,27.16,187.35,27.17,187.16,27.17z M188.06,24.28
			c-0.01-0.21-0.03-0.38-0.07-0.53c-0.04-0.15-0.11-0.28-0.19-0.38c-0.09-0.11-0.2-0.2-0.34-0.26c-0.14-0.06-0.31-0.09-0.52-0.09
			c-0.2,0-0.38,0.03-0.52,0.09c-0.14,0.06-0.27,0.15-0.39,0.27c-0.11,0.12-0.2,0.25-0.26,0.4c-0.06,0.15-0.1,0.31-0.11,0.51H188.06z
			"/>
		<path class="st0" d="M191.6,27.06l2.05-6.08h1l2.05,6.08h-0.85l-0.55-1.7h-2.32l-0.55,1.7H191.6z M195.06,24.67l-0.94-2.86
			l-0.93,2.86H195.06z"/>
		<path class="st0" d="M197.99,27.06h-0.77v-6.35h0.77V27.06z"/>
		<path class="st0" d="M200.5,27.15c-0.42,0-0.75-0.12-0.98-0.36c-0.23-0.24-0.35-0.61-0.35-1.13v-2.53h-0.52V22.5h0.52v-1.31h0.77
			v1.31h1.41v0.64h-1.41v2.17c0,0.23,0,0.41,0.01,0.53c0.01,0.13,0.04,0.24,0.09,0.35c0.05,0.1,0.12,0.17,0.22,0.21
			c0.1,0.05,0.24,0.07,0.42,0.07c0.13,0,0.25-0.02,0.36-0.05c0.12-0.04,0.2-0.07,0.25-0.09h0.05v0.69c-0.14,0.04-0.29,0.07-0.44,0.1
			C200.76,27.14,200.63,27.15,200.5,27.15z"/>
		<path class="st0" d="M205.67,24.79c0,0.77-0.19,1.36-0.55,1.78c-0.37,0.42-0.86,0.63-1.48,0.63c-0.63,0-1.13-0.22-1.5-0.65
			c-0.36-0.43-0.54-1.02-0.54-1.76c0-0.76,0.19-1.35,0.56-1.77c0.37-0.42,0.87-0.63,1.48-0.63c0.61,0,1.11,0.21,1.48,0.63
			C205.48,23.43,205.67,24.02,205.67,24.79z M204.87,24.79c0-0.59-0.11-1.03-0.32-1.32c-0.22-0.29-0.52-0.43-0.92-0.43
			c-0.4,0-0.71,0.14-0.92,0.43c-0.22,0.29-0.32,0.73-0.32,1.32c0,0.57,0.11,1,0.32,1.3c0.22,0.3,0.52,0.44,0.92,0.44
			c0.39,0,0.7-0.14,0.92-0.43C204.77,25.8,204.87,25.37,204.87,24.79z"/>
		<path class="st0" d="M211.5,27.17c-0.4,0-0.76-0.07-1.1-0.2c-0.33-0.13-0.62-0.33-0.86-0.6c-0.24-0.26-0.43-0.59-0.56-0.99
			c-0.13-0.39-0.2-0.85-0.2-1.36c0-0.51,0.06-0.95,0.19-1.33c0.13-0.38,0.32-0.71,0.57-0.99c0.24-0.27,0.53-0.48,0.86-0.62
			c0.33-0.14,0.7-0.21,1.11-0.21c0.2,0,0.4,0.01,0.57,0.04c0.18,0.03,0.34,0.07,0.5,0.11c0.13,0.04,0.26,0.09,0.4,0.15
			c0.14,0.06,0.27,0.13,0.41,0.2v0.98h-0.07c-0.07-0.07-0.16-0.14-0.27-0.24c-0.11-0.09-0.25-0.18-0.41-0.27
			c-0.16-0.08-0.32-0.15-0.51-0.21c-0.18-0.05-0.39-0.08-0.63-0.08c-0.26,0-0.5,0.05-0.73,0.16c-0.23,0.11-0.43,0.26-0.61,0.47
			c-0.17,0.21-0.3,0.47-0.4,0.78c-0.1,0.31-0.14,0.66-0.14,1.06c0,0.42,0.05,0.77,0.15,1.08s0.24,0.55,0.41,0.76
			c0.17,0.2,0.37,0.35,0.6,0.45c0.23,0.1,0.47,0.15,0.73,0.15c0.23,0,0.45-0.03,0.65-0.09c0.2-0.06,0.38-0.13,0.53-0.22
			c0.15-0.08,0.28-0.17,0.39-0.26c0.11-0.09,0.19-0.16,0.26-0.23h0.06v0.96c-0.13,0.06-0.26,0.12-0.38,0.18
			c-0.12,0.06-0.26,0.11-0.43,0.17c-0.18,0.06-0.34,0.1-0.49,0.13C211.94,27.16,211.74,27.17,211.5,27.17z"/>
		<path class="st0" d="M217.83,24.79c0,0.77-0.19,1.36-0.55,1.78c-0.37,0.42-0.86,0.63-1.48,0.63c-0.63,0-1.13-0.22-1.5-0.65
			c-0.36-0.43-0.54-1.02-0.54-1.76c0-0.76,0.19-1.35,0.56-1.77c0.37-0.42,0.87-0.63,1.48-0.63c0.61,0,1.11,0.21,1.48,0.63
			C217.65,23.43,217.83,24.02,217.83,24.79z M217.04,24.79c0-0.59-0.11-1.03-0.32-1.32c-0.22-0.29-0.52-0.43-0.92-0.43
			c-0.4,0-0.71,0.14-0.92,0.43c-0.22,0.29-0.32,0.73-0.32,1.32c0,0.57,0.11,1,0.32,1.3c0.22,0.3,0.52,0.44,0.92,0.44
			c0.39,0,0.7-0.14,0.92-0.43C216.93,25.8,217.04,25.37,217.04,24.79z"/>
		<path class="st0" d="M219.85,27.17c-0.3,0-0.59-0.04-0.85-0.12c-0.27-0.08-0.48-0.17-0.66-0.26v-0.86h0.04
			c0.07,0.05,0.14,0.11,0.23,0.17c0.09,0.06,0.21,0.13,0.35,0.2c0.13,0.06,0.27,0.11,0.43,0.16c0.16,0.05,0.32,0.07,0.49,0.07
			c0.12,0,0.25-0.01,0.39-0.04c0.14-0.03,0.24-0.06,0.31-0.11c0.1-0.06,0.16-0.13,0.21-0.2c0.04-0.07,0.06-0.18,0.06-0.32
			c0-0.18-0.05-0.32-0.15-0.41c-0.1-0.09-0.28-0.17-0.53-0.23c-0.1-0.02-0.23-0.05-0.38-0.09c-0.16-0.03-0.3-0.07-0.44-0.11
			c-0.35-0.1-0.6-0.26-0.76-0.47c-0.16-0.21-0.24-0.47-0.24-0.77c0-0.41,0.16-0.75,0.47-1c0.31-0.26,0.72-0.39,1.24-0.39
			c0.25,0,0.51,0.03,0.76,0.09c0.26,0.06,0.47,0.14,0.64,0.24v0.82h-0.04c-0.2-0.16-0.41-0.28-0.66-0.37
			c-0.24-0.09-0.48-0.13-0.73-0.13c-0.25,0-0.47,0.05-0.64,0.16c-0.17,0.11-0.26,0.27-0.26,0.48c0,0.19,0.05,0.33,0.16,0.43
			c0.1,0.09,0.27,0.17,0.5,0.23c0.11,0.03,0.24,0.06,0.38,0.09c0.14,0.03,0.29,0.06,0.44,0.1c0.34,0.08,0.59,0.22,0.76,0.42
			c0.17,0.2,0.25,0.46,0.25,0.8c0,0.2-0.04,0.38-0.12,0.56c-0.08,0.18-0.19,0.33-0.34,0.45c-0.16,0.14-0.35,0.24-0.55,0.31
			C220.42,27.14,220.16,27.17,219.85,27.17z"/>
		<path class="st0" d="M223.73,27.15c-0.42,0-0.75-0.12-0.98-0.36c-0.23-0.24-0.35-0.61-0.35-1.13v-2.53h-0.52V22.5h0.52v-1.31h0.77
			v1.31h1.41v0.64h-1.41v2.17c0,0.23,0,0.41,0.01,0.53c0.01,0.13,0.04,0.24,0.09,0.35c0.05,0.1,0.12,0.17,0.22,0.21
			c0.1,0.05,0.24,0.07,0.42,0.07c0.13,0,0.25-0.02,0.36-0.05c0.12-0.04,0.2-0.07,0.25-0.09h0.05v0.69c-0.14,0.04-0.29,0.07-0.44,0.1
			C223.99,27.14,223.85,27.15,223.73,27.15z"/>
		<path class="st0" d="M228.89,24.79c0,0.77-0.19,1.36-0.55,1.78c-0.37,0.42-0.86,0.63-1.48,0.63c-0.63,0-1.13-0.22-1.5-0.65
			c-0.36-0.43-0.54-1.02-0.54-1.76c0-0.76,0.19-1.35,0.56-1.77c0.37-0.42,0.87-0.63,1.48-0.63c0.61,0,1.11,0.21,1.48,0.63
			C228.71,23.43,228.89,24.02,228.89,24.79z M228.1,24.79c0-0.59-0.11-1.03-0.32-1.32c-0.22-0.29-0.52-0.43-0.92-0.43
			c-0.4,0-0.71,0.14-0.92,0.43c-0.22,0.29-0.32,0.73-0.32,1.32c0,0.57,0.11,1,0.32,1.3c0.22,0.3,0.52,0.44,0.92,0.44
			c0.39,0,0.7-0.14,0.92-0.43C227.99,25.8,228.1,25.37,228.1,24.79z"/>
	</g>
	<line class="st0" x1="42.29" y1="15.77" x2="229.09" y2="15.77"/>
</g>
</svg>
