<?xml version="1.0" encoding="utf-8"?>
<!-- Generator: Adobe Illustrator 26.0.1, SVG Export Plug-In . SVG Version: 6.00 Build 0)  -->
<svg version="1.1" id="Capa_1" xmlns="http://www.w3.org/2000/svg" xmlns:xlink="http://www.w3.org/1999/xlink" x="0px" y="0px"
	 viewBox="0 0 463.3 67.6" style="enable-background:new 0 0 463.3 67.6;" xml:space="preserve">
<style type="text/css">
	.st0{fill:#70C652;}
	.st1{fill:#CE1387;}
	.st2{fill:#112797;}
	.st3{fill:#070308;}
</style>
<g>
	<g>
		<g>
			<path class="st0" d="M66.8,37.1c0.9,2.2,0.1,5.2-1.4,7c-3.2,3.8-7.9,5.2-12.1,7.3c-4,2-7.9,4-10.9,7.5c-1.2,1.3-2.8,2.3-4.2,3.5
				c-0.2-0.2-0.5-0.4-0.9-0.7c1-3,2.1-6,4.1-8.5c2.1-2.7,4.1-5.4,6.4-7.9c3.4-3.7,8-5.7,12.2-8.2c0.9-0.6,1.9-1,2.8-1.6
				c1-0.7,2.1-0.9,3.3-0.5C66.3,35.7,66.5,36.4,66.8,37.1"/>
			<path class="st1" d="M60.5,26.9c0.3,0.6,0.3,1.4,0.1,2c-0.4,0.9-1,1.8-1.7,2.4c-1.6,1.4-3.3,3-5.1,4c-4.4,2.5-8.2,5.7-12,9.2
				c-3.5,3.3-7,6.7-10.9,9.4c-3.5,2.4-6.5,5-9.1,8.2c-0.5,0.7-1.1,1.3-1.6,2c0-0.1-0.1-0.3-0.1-0.4c0.1-1.3,0.2-2.6,0.3-3.9
				c0-0.1,0.1-0.3,0.1-0.4c4-8.4,8.4-16.7,15.3-23c6.2-5.7,13-10.8,20.4-14.9c1-0.5,1.5-0.4,1.9,0.7C58.7,23.8,59.7,25.3,60.5,26.9"
				/>
			<path class="st2" d="M54.4,11.7c1.2,1.7,0.7,3.6-1,4.8c-5.7,3.9-11.6,7.5-17,11.8C27,35.7,17.3,42.8,8.9,51.5
				c-1.4,1.5-2.8,3-4.3,4.5c-0.1,0-0.3-0.1-0.4-0.1c0-1.1,0-2.1,0-3.2c0-0.9,0.2-1.8-0.1-2.7c-0.6-1.8-0.4-3.4,0.3-5
				c0.8-1.9,1.7-3.7,2.8-5.5C15.7,25.9,26.6,14.7,40.1,6c1.6-1,3.4-1.7,5.1-2.5c0.7-0.3,1.3-0.4,1.7,0.4c0.1,0.2,0.4,0.5,0.6,0.5
				c1.4-0.1,2.6,0.4,3.6,1.2c0.5,0.4,1.3,0.9,1.4,1.4C52.9,8.8,53.3,10.3,54.4,11.7"/>
		</g>
	</g>
</g>
<g>
	<path class="st2" d="M94.3,26.1c-2.4,0-4.3-0.7-5.8-2.2c-1.4-1.5-2.1-3.5-2.1-6.2c0-2.6,0.7-4.6,2.2-6.1c1.4-1.5,3.4-2.3,5.8-2.3
		c0.6,0,1.2,0,1.7,0.1c0.5,0.1,1,0.2,1.5,0.3c0.4,0.1,0.8,0.3,1.2,0.4c0.4,0.2,0.8,0.4,1.1,0.5v3.9h-0.4c-0.2-0.2-0.4-0.4-0.7-0.6
		c-0.3-0.2-0.6-0.5-1-0.7c-0.4-0.2-0.8-0.4-1.2-0.6s-0.9-0.2-1.4-0.2c-0.6,0-1.1,0.1-1.6,0.3c-0.5,0.2-0.9,0.5-1.4,1
		c-0.4,0.4-0.7,1-1,1.7c-0.3,0.7-0.4,1.5-0.4,2.5c0,1,0.1,1.9,0.4,2.5c0.3,0.7,0.6,1.2,1.1,1.7c0.4,0.4,0.9,0.7,1.4,0.9
		c0.5,0.2,1,0.3,1.6,0.3c0.5,0,1.1-0.1,1.5-0.3c0.5-0.2,0.9-0.4,1.2-0.6c0.4-0.2,0.7-0.5,1-0.7s0.5-0.4,0.7-0.6h0.4v3.8
		c-0.3,0.1-0.6,0.3-1,0.5c-0.4,0.2-0.8,0.3-1.2,0.5c-0.5,0.1-1,0.3-1.4,0.4C95.7,26.1,95.1,26.1,94.3,26.1z"/>
	<path class="st2" d="M108.8,26.2c-2.2,0-3.8-0.5-5-1.6S102,22,102,20V9.6h4.1v10.1c0,1.1,0.2,2,0.6,2.5c0.4,0.5,1.1,0.8,2.1,0.8
		c0.9,0,1.6-0.3,2.1-0.8c0.4-0.5,0.7-1.4,0.7-2.5V9.6h4.1V20c0,2-0.6,3.5-1.7,4.6C112.7,25.6,111,26.2,108.8,26.2z"/>
	<path class="st2" d="M118.7,25.8V9.6h10.9v3.1h-6.9v2.8h6.4v3.1h-6.4v4.1h6.9v3.1L118.7,25.8L118.7,25.8z"/>
	<path class="st2" d="M146.2,25.8h-3.9l-6.2-11.3v11.3h-3.7V9.6h5l5.2,9.3V9.6h3.7V25.8z"/>
	<path class="st2" d="M152.6,25.8V12.7h-4.8V9.6h13.6v3.1h-4.8v13.1H152.6z"/>
	<path class="st2" d="M161.4,25.8l5.5-16.2h4.4l5.5,16.2h-4.2l-1-3.3h-5.1l-1,3.3H161.4z M170.7,19.6l-1.6-5.3l-1.6,5.3H170.7z"/>
	<path class="st2" d="M199.3,17.8c0,1.5-0.3,2.9-1,4.1s-1.5,2.1-2.5,2.7c-0.8,0.5-1.8,0.9-2.7,1c-1,0.2-2,0.2-3.2,0.2h-5.1V9.6h5
		c1.1,0,2.2,0.1,3.2,0.2c1,0.1,1.9,0.5,2.8,1.1c1.1,0.7,1.9,1.6,2.5,2.8C199,14.8,199.3,16.2,199.3,17.8z M195.2,17.7
		c0-1.1-0.2-2-0.6-2.7c-0.4-0.8-0.9-1.4-1.7-1.8c-0.6-0.3-1.1-0.5-1.7-0.5c-0.6,0-1.3,0-2.2,0h-0.1v10.1h0.1c0.9,0,1.7,0,2.3,0
		c0.6,0,1.2-0.2,1.8-0.6c0.7-0.4,1.2-1,1.5-1.7C195,19.7,195.2,18.8,195.2,17.7z"/>
	<path class="st2" d="M201.7,25.8V9.6h10.9v3.1h-6.9v2.8h6.4v3.1h-6.4v4.1h6.9v3.1L201.7,25.8L201.7,25.8z"/>
	<path class="st2" d="M220.2,25.8l5.5-16.2h4.4l5.5,16.2h-4.2l-1-3.3h-5.1l-1,3.3H220.2z M229.5,19.6l-1.6-5.3l-1.6,5.3H229.5z"/>
	<path class="st2" d="M248,25.8h-10.8V9.6h4.1v13.1h6.7V25.8z"/>
	<path class="st2" d="M253,25.8V12.7h-4.8V9.6h13.6v3.1h-4.8v13.1H253z"/>
	<path class="st2" d="M278.3,17.8c0,2.6-0.7,4.7-2.1,6.2s-3.3,2.2-5.8,2.2s-4.4-0.8-5.8-2.3s-2.1-3.6-2.1-6.1c0-2.6,0.7-4.7,2.1-6.2
		c1.4-1.5,3.3-2.3,5.8-2.3c2.4,0,4.4,0.8,5.8,2.2C277.6,13.1,278.3,15.1,278.3,17.8z M274.1,17.7c0-1-0.1-1.8-0.3-2.5
		c-0.2-0.7-0.5-1.2-0.8-1.7c-0.4-0.4-0.7-0.8-1.2-0.9s-0.9-0.3-1.4-0.3c-0.5,0-1,0.1-1.4,0.3c-0.4,0.2-0.8,0.5-1.2,0.9
		c-0.3,0.4-0.6,1-0.8,1.7s-0.3,1.5-0.3,2.5c0,1,0.1,1.8,0.3,2.5c0.2,0.7,0.5,1.2,0.8,1.6c0.4,0.5,0.7,0.8,1.2,1
		c0.4,0.2,0.9,0.3,1.4,0.3c0.5,0,0.9-0.1,1.4-0.3s0.8-0.5,1.2-1c0.4-0.5,0.6-1,0.8-1.6C274,19.6,274.1,18.8,274.1,17.7z"/>
	<path class="st2" d="M294.2,26.1c-2.4,0-4.4-0.7-5.8-2.2c-1.4-1.5-2.1-3.5-2.1-6.2c0-2.6,0.7-4.6,2.1-6.1c1.4-1.5,3.4-2.3,5.8-2.3
		c0.6,0,1.2,0,1.7,0.1s1,0.2,1.5,0.3c0.4,0.1,0.8,0.3,1.2,0.4s0.8,0.4,1,0.5v3.9h-0.4c-0.2-0.2-0.4-0.4-0.7-0.6s-0.6-0.5-1-0.7
		c-0.4-0.2-0.8-0.4-1.2-0.6c-0.5-0.2-0.9-0.2-1.4-0.2c-0.6,0-1.1,0.1-1.6,0.3c-0.5,0.2-1,0.5-1.4,1c-0.4,0.4-0.7,1-1,1.7
		c-0.3,0.7-0.4,1.5-0.4,2.5c0,1,0.1,1.9,0.4,2.5c0.3,0.7,0.6,1.2,1,1.7c0.4,0.4,0.9,0.7,1.4,0.9c0.5,0.2,1,0.3,1.5,0.3
		c0.5,0,1-0.1,1.5-0.3c0.5-0.2,0.9-0.4,1.2-0.6c0.4-0.2,0.7-0.5,1-0.7c0.3-0.2,0.5-0.4,0.7-0.6h0.4v3.8c-0.3,0.1-0.6,0.3-1,0.5
		c-0.4,0.2-0.8,0.3-1.2,0.5c-0.5,0.1-1,0.3-1.4,0.4S295,26.1,294.2,26.1z"/>
	<path class="st2" d="M316.8,17.8c0,2.6-0.7,4.7-2.1,6.2s-3.3,2.2-5.8,2.2s-4.4-0.8-5.8-2.3s-2.1-3.6-2.1-6.1c0-2.6,0.7-4.7,2.1-6.2
		c1.4-1.5,3.3-2.3,5.8-2.3c2.4,0,4.4,0.8,5.8,2.2C316.1,13.1,316.8,15.1,316.8,17.8z M312.6,17.7c0-1-0.1-1.8-0.3-2.5
		c-0.2-0.7-0.5-1.2-0.8-1.7c-0.4-0.4-0.7-0.8-1.2-0.9s-0.9-0.3-1.4-0.3c-0.5,0-1,0.1-1.4,0.3c-0.4,0.2-0.8,0.5-1.2,0.9
		c-0.3,0.4-0.6,1-0.8,1.7c-0.2,0.7-0.3,1.5-0.3,2.5c0,1,0.1,1.8,0.3,2.5c0.2,0.7,0.5,1.2,0.8,1.6c0.4,0.5,0.7,0.8,1.2,1
		c0.4,0.2,0.9,0.3,1.4,0.3c0.5,0,0.9-0.1,1.4-0.3s0.8-0.5,1.2-1c0.4-0.5,0.6-1,0.8-1.6C312.5,19.6,312.6,18.8,312.6,17.7z"/>
	<path class="st2" d="M324.2,26.1c-1.2,0-2.3-0.1-3.3-0.4s-1.8-0.5-2.6-0.9V21h0.4c0.8,0.7,1.7,1.2,2.7,1.6c1,0.4,1.9,0.5,2.9,0.5
		c0.2,0,0.5,0,0.9-0.1s0.7-0.1,0.9-0.2c0.3-0.1,0.5-0.3,0.7-0.5c0.2-0.2,0.3-0.5,0.3-0.9c0-0.4-0.2-0.7-0.5-1s-0.7-0.4-1.1-0.5
		c-0.5-0.1-1.1-0.3-1.8-0.4c-0.6-0.1-1.2-0.3-1.8-0.5c-1.2-0.4-2.1-1-2.7-1.8c-0.5-0.8-0.8-1.7-0.8-2.8c0-1.5,0.6-2.7,1.9-3.7
		c1.3-0.9,2.9-1.4,4.8-1.4c1,0,1.9,0.1,2.9,0.3c1,0.2,1.8,0.5,2.6,0.8v3.7h-0.4c-0.6-0.5-1.3-0.9-2.2-1.3c-0.9-0.4-1.8-0.5-2.7-0.5
		c-0.4,0-0.7,0-1,0.1c-0.3,0.1-0.6,0.1-0.9,0.3c-0.2,0.1-0.5,0.3-0.7,0.5c-0.2,0.2-0.3,0.5-0.3,0.8c0,0.4,0.1,0.7,0.4,1
		s0.9,0.5,1.7,0.7c0.5,0.1,1.1,0.2,1.6,0.4c0.5,0.1,1,0.3,1.6,0.5c1.1,0.4,2,1,2.5,1.6c0.5,0.7,0.8,1.6,0.8,2.7
		c0,1.6-0.6,2.9-1.9,3.9C328.1,25.6,326.4,26.1,324.2,26.1z"/>
	<path class="st2" d="M336.4,25.8V12.7h-4.8V9.6h13.6v3.1h-4.8v13.1H336.4z"/>
	<path class="st2" d="M361.7,17.8c0,2.6-0.7,4.7-2.1,6.2s-3.3,2.2-5.8,2.2s-4.4-0.8-5.8-2.3s-2.1-3.6-2.1-6.1c0-2.6,0.7-4.7,2.1-6.2
		c1.4-1.5,3.3-2.3,5.8-2.3c2.4,0,4.4,0.8,5.8,2.2C361,13.1,361.7,15.1,361.7,17.8z M357.5,17.7c0-1-0.1-1.8-0.3-2.5
		c-0.2-0.7-0.5-1.2-0.8-1.7c-0.4-0.4-0.7-0.8-1.2-0.9s-0.9-0.3-1.4-0.3c-0.5,0-1,0.1-1.4,0.3c-0.4,0.2-0.8,0.5-1.2,0.9
		c-0.3,0.4-0.6,1-0.8,1.7s-0.3,1.5-0.3,2.5c0,1,0.1,1.8,0.3,2.5c0.2,0.7,0.5,1.2,0.8,1.6c0.4,0.5,0.7,0.8,1.2,1
		c0.4,0.2,0.9,0.3,1.4,0.3c0.5,0,0.9-0.1,1.4-0.3s0.8-0.5,1.2-1c0.4-0.5,0.6-1,0.8-1.6C357.4,19.6,357.5,18.8,357.5,17.7z"/>
</g>
<g>
	<path class="st3" d="M94.3,45.5h-5.7v3.4H94v1.4h-5.4v5.8H87V44.1h7.3C94.3,44.1,94.3,45.5,94.3,45.5z"/>
	<path class="st3" d="M102.7,51.7c0,1.5-0.4,2.7-1.1,3.5c-0.7,0.8-1.7,1.2-2.9,1.2c-1.3,0-2.3-0.4-3-1.3c-0.7-0.9-1.1-2-1.1-3.5
		c0-1.5,0.4-2.7,1.1-3.5c0.8-0.8,1.7-1.3,2.9-1.3c1.2,0,2.2,0.4,2.9,1.3C102.3,49,102.7,50.2,102.7,51.7z M101.1,51.7
		c0-1.2-0.2-2.1-0.6-2.6s-1-0.9-1.8-0.9c-0.8,0-1.4,0.3-1.8,0.9c-0.4,0.6-0.7,1.5-0.7,2.6c0,1.1,0.2,2,0.7,2.6s1.1,0.9,1.8,0.9
		c0.8,0,1.4-0.3,1.8-0.9C100.9,53.7,101.1,52.8,101.1,51.7z"/>
	<path class="st3" d="M111.4,56.2h-1.5V51c0-0.4,0-0.8-0.1-1.2c0-0.4-0.1-0.7-0.2-0.9c-0.1-0.2-0.3-0.4-0.5-0.5
		c-0.2-0.1-0.5-0.2-0.9-0.2c-0.4,0-0.8,0.1-1.2,0.3c-0.4,0.2-0.8,0.5-1.2,0.8v6.8h-1.5v-9.1h1.5v1c0.5-0.4,0.9-0.7,1.3-0.9
		c0.4-0.2,0.9-0.3,1.4-0.3c0.9,0,1.6,0.3,2.1,0.9s0.8,1.4,0.8,2.6V56.2z"/>
	<path class="st3" d="M120.6,56.2h-1.5v-0.9c-0.2,0.2-0.4,0.4-0.6,0.5c-0.2,0.1-0.4,0.2-0.6,0.4c-0.2,0.1-0.4,0.2-0.7,0.2
		c-0.2,0.1-0.5,0.1-0.8,0.1c-0.5,0-0.9-0.1-1.4-0.3c-0.4-0.2-0.8-0.5-1.1-0.9c-0.3-0.4-0.5-0.9-0.7-1.5s-0.2-1.3-0.2-2
		c0-0.8,0.1-1.5,0.3-2.1c0.2-0.6,0.5-1.1,0.9-1.5c0.3-0.4,0.7-0.7,1.2-0.9c0.5-0.2,1-0.3,1.5-0.3c0.5,0,0.8,0,1.2,0.2
		c0.3,0.1,0.7,0.3,1.1,0.5v-4h1.5L120.6,56.2L120.6,56.2z M119.1,54v-5.2c-0.4-0.2-0.7-0.3-1-0.4c-0.3-0.1-0.6-0.1-1-0.1
		c-0.8,0-1.4,0.3-1.8,0.9s-0.7,1.4-0.7,2.6c0,1.1,0.2,1.9,0.5,2.5c0.3,0.6,0.9,0.8,1.7,0.8c0.4,0,0.8-0.1,1.2-0.3
		C118.3,54.6,118.7,54.3,119.1,54z"/>
	<path class="st3" d="M130.3,51.7c0,1.5-0.4,2.7-1.1,3.5c-0.7,0.8-1.7,1.2-2.9,1.2c-1.3,0-2.3-0.4-3-1.3c-0.7-0.9-1.1-2-1.1-3.5
		c0-1.5,0.4-2.7,1.1-3.5c0.8-0.8,1.7-1.3,2.9-1.3c1.2,0,2.2,0.4,2.9,1.3C129.9,49,130.3,50.2,130.3,51.7z M128.7,51.7
		c0-1.2-0.2-2.1-0.6-2.6c-0.4-0.6-1-0.9-1.8-0.9c-0.8,0-1.4,0.3-1.8,0.9c-0.4,0.6-0.7,1.5-0.7,2.6c0,1.1,0.2,2,0.7,2.6
		s1.1,0.9,1.8,0.9c0.8,0,1.4-0.3,1.8-0.9C128.5,53.7,128.7,52.8,128.7,51.7z"/>
	<path class="st3" d="M142,56.4c-0.8,0-1.5-0.1-2.2-0.4s-1.2-0.7-1.7-1.2s-0.9-1.2-1.1-2c-0.3-0.8-0.4-1.7-0.4-2.7s0.1-1.9,0.4-2.7
		s0.6-1.4,1.1-2c0.5-0.5,1.1-1,1.7-1.2c0.7-0.3,1.4-0.4,2.2-0.4c0.4,0,0.8,0,1.1,0.1s0.7,0.1,1,0.2c0.3,0.1,0.5,0.2,0.8,0.3
		c0.3,0.1,0.5,0.3,0.8,0.4v2h-0.1c-0.1-0.1-0.3-0.3-0.6-0.5c-0.2-0.2-0.5-0.4-0.8-0.5c-0.3-0.2-0.6-0.3-1-0.4
		c-0.4-0.1-0.8-0.2-1.3-0.2c-0.5,0-1,0.1-1.5,0.3s-0.9,0.5-1.2,0.9c-0.3,0.4-0.6,0.9-0.8,1.6s-0.3,1.3-0.3,2.1
		c0,0.8,0.1,1.5,0.3,2.2c0.2,0.6,0.5,1.1,0.8,1.5c0.3,0.4,0.7,0.7,1.2,0.9s0.9,0.3,1.4,0.3c0.5,0,0.9-0.1,1.3-0.2
		c0.4-0.1,0.8-0.3,1.1-0.4c0.3-0.2,0.6-0.3,0.8-0.5s0.4-0.3,0.5-0.5h0.1v1.9c-0.3,0.1-0.5,0.2-0.8,0.4c-0.2,0.1-0.5,0.2-0.9,0.3
		c-0.4,0.1-0.7,0.2-1,0.3C142.9,56.4,142.5,56.4,142,56.4z"/>
	<path class="st3" d="M154.6,51.7c0,1.5-0.4,2.7-1.1,3.5c-0.7,0.8-1.7,1.2-2.9,1.2c-1.3,0-2.3-0.4-3-1.3c-0.7-0.9-1.1-2-1.1-3.5
		c0-1.5,0.4-2.7,1.1-3.5c0.8-0.8,1.7-1.3,2.9-1.3c1.2,0,2.2,0.4,2.9,1.3C154.2,49,154.6,50.2,154.6,51.7z M153,51.7
		c0-1.2-0.2-2.1-0.6-2.6s-1-0.9-1.8-0.9c-0.8,0-1.4,0.3-1.9,0.9c-0.4,0.6-0.6,1.5-0.6,2.6c0,1.1,0.2,2,0.6,2.6s1.1,0.9,1.9,0.9
		c0.8,0,1.4-0.3,1.8-0.9C152.8,53.7,153,52.8,153,51.7z"/>
	<path class="st3" d="M157.8,56.2h-1.5V43.5h1.5V56.2z"/>
	<path class="st3" d="M167.5,51.7c0,1.5-0.4,2.7-1.1,3.5c-0.7,0.8-1.7,1.2-2.9,1.2c-1.3,0-2.3-0.4-3-1.3c-0.7-0.9-1.1-2-1.1-3.5
		c0-1.5,0.4-2.7,1.1-3.5c0.8-0.8,1.7-1.3,2.9-1.3c1.2,0,2.2,0.4,2.9,1.3C167.1,49,167.5,50.2,167.5,51.7z M165.9,51.7
		c0-1.2-0.2-2.1-0.6-2.6s-1-0.9-1.8-0.9c-0.8,0-1.4,0.3-1.9,0.9c-0.4,0.6-0.6,1.5-0.6,2.6c0,1.1,0.2,2,0.6,2.6s1.1,0.9,1.9,0.9
		c0.8,0,1.4-0.3,1.8-0.9C165.7,53.7,165.9,52.8,165.9,51.7z"/>
	<path class="st3" d="M179.4,56.2V51c0-0.4,0-0.8-0.1-1.2c0-0.4-0.1-0.6-0.2-0.8c-0.1-0.2-0.3-0.4-0.5-0.5c-0.2-0.1-0.5-0.2-0.8-0.2
		c-0.3,0-0.6,0.1-1,0.3c-0.4,0.2-0.7,0.5-1.1,0.8c0,0.1,0,0.2,0,0.3c0,0.1,0,0.3,0,0.5v6h-1.5V51c0-0.4,0-0.8-0.1-1.2
		c0-0.4-0.1-0.6-0.2-0.8c-0.1-0.2-0.3-0.4-0.5-0.5c-0.2-0.1-0.5-0.2-0.8-0.2c-0.3,0-0.7,0.1-1,0.3c-0.4,0.2-0.7,0.5-1.1,0.8v6.8
		h-1.5v-9.1h1.5v1c0.4-0.4,0.8-0.7,1.2-0.9s0.8-0.3,1.3-0.3c0.5,0,1,0.1,1.4,0.4c0.4,0.2,0.7,0.7,0.9,1.2c0.5-0.5,0.9-0.9,1.4-1.2
		c0.4-0.3,0.9-0.4,1.4-0.4c0.4,0,0.8,0.1,1.1,0.2s0.6,0.3,0.8,0.6c0.2,0.3,0.4,0.6,0.6,1c0.1,0.4,0.2,0.9,0.2,1.6v6L179.4,56.2
		L179.4,56.2z"/>
	<path class="st3" d="M190.7,51.5c0,1.5-0.4,2.7-1.1,3.6c-0.7,0.9-1.6,1.4-2.7,1.4c-0.5,0-0.9-0.1-1.3-0.2s-0.7-0.3-1-0.5l-0.1,0.4
		h-1.4V43.5h1.5v4.5c0.4-0.3,0.8-0.6,1.3-0.9c0.4-0.2,1-0.3,1.5-0.3c1,0,1.8,0.4,2.4,1.2C190.4,48.9,190.7,50.1,190.7,51.5z
		 M189.1,51.6c0-1.1-0.2-1.9-0.5-2.5s-0.9-0.8-1.6-0.8c-0.4,0-0.8,0.1-1.3,0.3c-0.4,0.2-0.8,0.4-1.2,0.7v5.2c0.4,0.2,0.7,0.3,1,0.4
		s0.6,0.1,1,0.1c0.8,0,1.4-0.3,1.8-0.8C188.9,53.7,189.1,52.8,189.1,51.6z"/>
	<path class="st3" d="M194,45.6h-1.7V44h1.7V45.6z M193.9,56.2h-1.5v-9.1h1.5V56.2z"/>
	<path class="st3" d="M201.2,55.2c-0.1,0.1-0.3,0.2-0.5,0.4s-0.4,0.3-0.6,0.4c-0.3,0.1-0.5,0.2-0.8,0.3c-0.2,0.1-0.6,0.1-1.1,0.1
		c-0.4,0-0.7-0.1-1.1-0.2c-0.3-0.1-0.6-0.3-0.9-0.6c-0.2-0.2-0.4-0.6-0.6-0.9s-0.2-0.8-0.2-1.2c0-0.6,0.1-1.2,0.4-1.6
		s0.7-0.8,1.3-1.1c0.5-0.2,1.1-0.4,1.8-0.5s1.4-0.2,2.2-0.2V50c0-0.4-0.1-0.7-0.2-0.9c-0.1-0.2-0.3-0.4-0.5-0.5
		c-0.2-0.1-0.4-0.2-0.7-0.2c-0.3,0-0.6-0.1-0.9-0.1c-0.4,0-0.8,0-1.2,0.2s-1,0.3-1.4,0.5h-0.1v-1.6c0.3-0.1,0.7-0.2,1.2-0.3
		c0.5-0.1,1.1-0.2,1.6-0.2c0.6,0,1.1,0,1.6,0.2c0.4,0.1,0.8,0.3,1.2,0.5c0.3,0.2,0.6,0.6,0.7,1s0.2,0.9,0.2,1.5v6.2h-1.5L201.2,55.2
		L201.2,55.2z M201.2,54v-2.5c-0.4,0-0.8,0.1-1.4,0.1c-0.6,0.1-1,0.1-1.4,0.2c-0.4,0.1-0.7,0.3-1,0.6c-0.3,0.3-0.4,0.6-0.4,1.1
		c0,0.5,0.1,0.9,0.4,1.2c0.3,0.3,0.7,0.4,1.3,0.4c0.5,0,0.9-0.1,1.3-0.3C200.5,54.5,200.9,54.3,201.2,54z"/>
	<path class="st3" d="M212.1,56.2h-1.5V51c0-0.4,0-0.8-0.1-1.2c0-0.4-0.1-0.7-0.2-0.9c-0.1-0.2-0.3-0.4-0.5-0.5
		c-0.2-0.1-0.5-0.2-0.9-0.2s-0.8,0.1-1.2,0.3c-0.4,0.2-0.8,0.5-1.2,0.8v6.8h-1.5v-9.1h1.5v1c0.5-0.4,0.9-0.7,1.4-0.9
		c0.4-0.2,0.9-0.3,1.4-0.3c0.9,0,1.6,0.3,2.1,0.9c0.5,0.6,0.8,1.4,0.8,2.6L212.1,56.2L212.1,56.2z"/>
	<path class="st3" d="M221.7,51.7c0,1.5-0.4,2.7-1.1,3.5c-0.7,0.8-1.7,1.2-2.9,1.2c-1.3,0-2.3-0.4-3-1.3c-0.7-0.9-1.1-2-1.1-3.5
		c0-1.5,0.4-2.7,1.1-3.5c0.8-0.8,1.7-1.3,2.9-1.3c1.2,0,2.2,0.4,2.9,1.3C221.3,49,221.7,50.2,221.7,51.7z M220.1,51.7
		c0-1.2-0.2-2.1-0.6-2.6s-1-0.9-1.8-0.9c-0.8,0-1.4,0.3-1.9,0.9c-0.4,0.6-0.6,1.5-0.6,2.6c0,1.1,0.2,2,0.6,2.6s1.1,0.9,1.9,0.9
		c0.8,0,1.4-0.3,1.8-0.9C219.9,53.7,220.1,52.8,220.1,51.7z"/>
	<path class="st3" d="M235.5,56.2H234v-0.9c-0.2,0.2-0.4,0.4-0.6,0.5s-0.4,0.2-0.6,0.4c-0.2,0.1-0.4,0.2-0.7,0.2s-0.5,0.1-0.8,0.1
		c-0.5,0-0.9-0.1-1.4-0.3c-0.4-0.2-0.8-0.5-1.1-0.9c-0.3-0.4-0.5-0.9-0.7-1.5s-0.2-1.3-0.2-2c0-0.8,0.1-1.5,0.3-2.1
		c0.2-0.6,0.5-1.1,0.9-1.5c0.3-0.4,0.7-0.7,1.2-0.9c0.5-0.2,1-0.3,1.5-0.3c0.5,0,0.9,0,1.2,0.2c0.3,0.1,0.7,0.3,1.1,0.5v-4h1.5
		L235.5,56.2L235.5,56.2z M234,54v-5.2c-0.4-0.2-0.7-0.3-1-0.4s-0.6-0.1-1-0.1c-0.8,0-1.4,0.3-1.9,0.9c-0.4,0.6-0.7,1.4-0.7,2.6
		c0,1.1,0.2,1.9,0.5,2.5s0.9,0.8,1.6,0.8c0.4,0,0.8-0.1,1.2-0.3C233.2,54.6,233.6,54.3,234,54z"/>
	<path class="st3" d="M241.7,56.4c-1.4,0-2.6-0.4-3.4-1.2s-1.2-2-1.2-3.5c0-1.5,0.4-2.7,1.2-3.5s1.8-1.3,3.1-1.3
		c0.6,0,1.1,0.1,1.5,0.2s0.8,0.4,1.1,0.8c0.3,0.3,0.6,0.8,0.8,1.3c0.2,0.5,0.3,1.1,0.3,1.8v0.8h-6.3c0,1.1,0.3,1.9,0.8,2.4
		s1.3,0.8,2.2,0.8c0.3,0,0.7,0,1-0.1c0.3-0.1,0.6-0.2,0.9-0.3c0.3-0.1,0.5-0.2,0.7-0.4c0.2-0.1,0.4-0.2,0.5-0.3h0.1v1.7
		c-0.2,0.1-0.4,0.2-0.7,0.3c-0.3,0.1-0.5,0.2-0.7,0.2c-0.3,0.1-0.6,0.1-0.8,0.2C242.3,56.4,242,56.4,241.7,56.4z M243.4,50.7
		c0-0.4-0.1-0.8-0.1-1.1s-0.2-0.5-0.4-0.8c-0.2-0.2-0.4-0.4-0.7-0.5s-0.6-0.2-1-0.2c-0.4,0-0.8,0.1-1,0.2s-0.6,0.3-0.8,0.5
		c-0.2,0.2-0.4,0.5-0.5,0.8c-0.1,0.3-0.2,0.6-0.2,1L243.4,50.7L243.4,50.7z"/>
	<path class="st3" d="M251.8,56.2V44.1h7.6v1.4h-6v3.3h5.6v1.4h-5.6v4.5h6v1.4H251.8z"/>
	<path class="st3" d="M268.2,56.2h-1.5V51c0-0.4,0-0.8-0.1-1.2c0-0.4-0.1-0.7-0.2-0.9c-0.1-0.2-0.3-0.4-0.5-0.5
		c-0.2-0.1-0.5-0.2-0.9-0.2s-0.8,0.1-1.2,0.3c-0.4,0.2-0.8,0.5-1.2,0.8v6.8h-1.5v-9.1h1.5v1c0.5-0.4,0.9-0.7,1.4-0.9
		c0.5-0.2,0.9-0.3,1.4-0.3c0.9,0,1.6,0.3,2.1,0.9s0.8,1.4,0.8,2.6L268.2,56.2L268.2,56.2z"/>
	<path class="st3" d="M275.2,45L275.2,45c-0.2,0-0.4-0.1-0.7-0.1c-0.3,0-0.5-0.1-0.7-0.1c-0.6,0-1.1,0.2-1.4,0.4
		c-0.3,0.3-0.4,0.8-0.4,1.6v0.3h2.5v1.3h-2.5v7.8h-1.5v-7.8h-1v-1.3h1v-0.3c0-1.1,0.3-1.9,0.8-2.5s1.3-0.9,2.3-0.9
		c0.3,0,0.6,0,0.8,0c0.3,0,0.5,0.1,0.7,0.1V45z"/>
	<path class="st3" d="M279.5,56.4c-1.5,0-2.6-0.4-3.4-1.2c-0.8-0.8-1.2-2-1.2-3.5c0-1.5,0.4-2.7,1.2-3.5s1.8-1.3,3-1.3
		c0.6,0,1.1,0.1,1.5,0.2s0.8,0.4,1.1,0.8c0.3,0.3,0.6,0.8,0.8,1.3c0.2,0.5,0.3,1.1,0.3,1.8v0.8h-6.3c0,1.1,0.3,1.9,0.8,2.4
		s1.3,0.8,2.2,0.8c0.3,0,0.7,0,1-0.1c0.3-0.1,0.6-0.2,0.9-0.3c0.3-0.1,0.5-0.2,0.7-0.4c0.2-0.1,0.4-0.2,0.5-0.3h0.1v1.7
		c-0.2,0.1-0.4,0.2-0.7,0.3c-0.3,0.1-0.5,0.2-0.7,0.2c-0.3,0.1-0.6,0.1-0.8,0.2C280.2,56.4,279.9,56.4,279.5,56.4z M281.3,50.7
		c0-0.4-0.1-0.8-0.1-1.1s-0.2-0.5-0.4-0.8c-0.2-0.2-0.4-0.4-0.7-0.5s-0.6-0.2-1-0.2s-0.8,0.1-1,0.2s-0.5,0.3-0.8,0.5
		c-0.2,0.2-0.4,0.5-0.5,0.8s-0.2,0.6-0.2,1L281.3,50.7L281.3,50.7z"/>
	<path class="st3" d="M289.2,48.8L289.2,48.8c-0.2,0-0.3,0-0.4-0.1c-0.1,0-0.3,0-0.5,0c-0.4,0-0.8,0.1-1.2,0.3s-0.8,0.5-1.2,0.8v6.5
		h-1.5v-9.1h1.5v1.3c0.6-0.5,1-0.8,1.5-1c0.4-0.2,0.8-0.3,1.2-0.3c0.2,0,0.3,0,0.4,0c0.1,0,0.2,0,0.3,0L289.2,48.8L289.2,48.8z"/>
	<path class="st3" d="M300.7,56.2V51c0-0.4,0-0.8,0-1.2c0-0.4-0.1-0.6-0.2-0.8c-0.1-0.2-0.3-0.4-0.5-0.5c-0.2-0.1-0.5-0.2-0.8-0.2
		c-0.3,0-0.6,0.1-1,0.3c-0.4,0.2-0.7,0.5-1.1,0.8c0,0.1,0,0.2,0,0.3c0,0.1,0,0.3,0,0.5v6h-1.5V51c0-0.4,0-0.8,0-1.2
		c0-0.4-0.1-0.6-0.2-0.8c-0.1-0.2-0.3-0.4-0.5-0.5c-0.2-0.1-0.5-0.2-0.8-0.2c-0.3,0-0.7,0.1-1,0.3c-0.4,0.2-0.7,0.5-1.1,0.8v6.8
		h-1.5v-9.1h1.5v1c0.4-0.4,0.8-0.7,1.2-0.9s0.8-0.3,1.3-0.3c0.5,0,1,0.1,1.4,0.4c0.4,0.2,0.7,0.7,1,1.2c0.5-0.5,0.9-0.9,1.4-1.2
		c0.4-0.3,0.9-0.4,1.4-0.4c0.4,0,0.8,0.1,1.1,0.2s0.6,0.3,0.8,0.6c0.2,0.3,0.4,0.6,0.6,1c0.1,0.4,0.2,0.9,0.2,1.6v6L300.7,56.2
		L300.7,56.2z"/>
	<path class="st3" d="M308.3,56.4c-1.5,0-2.6-0.4-3.4-1.2c-0.8-0.8-1.2-2-1.2-3.5c0-1.5,0.4-2.7,1.2-3.5s1.8-1.3,3-1.3
		c0.6,0,1.1,0.1,1.5,0.2s0.8,0.4,1.1,0.8c0.3,0.3,0.6,0.8,0.8,1.3c0.2,0.5,0.3,1.1,0.3,1.8v0.8h-6.3c0,1.1,0.3,1.9,0.8,2.4
		s1.3,0.8,2.2,0.8c0.3,0,0.7,0,1-0.1s0.6-0.2,0.9-0.3c0.3-0.1,0.5-0.2,0.7-0.4c0.2-0.1,0.4-0.2,0.5-0.3h0.1v1.7
		c-0.2,0.1-0.4,0.2-0.7,0.3c-0.3,0.1-0.5,0.2-0.7,0.2c-0.3,0.1-0.6,0.1-0.8,0.2C309,56.4,308.7,56.4,308.3,56.4z M310.1,50.7
		c0-0.4-0.1-0.8-0.1-1.1s-0.2-0.5-0.4-0.8c-0.2-0.2-0.4-0.4-0.7-0.5s-0.6-0.2-1-0.2s-0.8,0.1-1,0.2s-0.5,0.3-0.8,0.5
		c-0.2,0.2-0.4,0.5-0.5,0.8s-0.2,0.6-0.2,1L310.1,50.7L310.1,50.7z"/>
	<path class="st3" d="M320.2,56.2h-1.5v-0.9c-0.2,0.2-0.5,0.4-0.6,0.5c-0.2,0.1-0.4,0.2-0.6,0.4c-0.2,0.1-0.4,0.2-0.7,0.2
		s-0.5,0.1-0.8,0.1c-0.5,0-1-0.1-1.4-0.3c-0.4-0.2-0.8-0.5-1.1-0.9c-0.3-0.4-0.5-0.9-0.7-1.5s-0.2-1.3-0.2-2c0-0.8,0.1-1.5,0.3-2.1
		c0.2-0.6,0.5-1.1,0.9-1.5c0.3-0.4,0.7-0.7,1.2-0.9c0.5-0.2,1-0.3,1.5-0.3c0.5,0,0.9,0,1.2,0.2c0.3,0.1,0.7,0.3,1.1,0.5v-4h1.5
		L320.2,56.2L320.2,56.2z M318.6,54v-5.2c-0.4-0.2-0.7-0.3-1-0.4s-0.6-0.1-1-0.1c-0.8,0-1.4,0.3-1.9,0.9s-0.7,1.4-0.7,2.6
		c0,1.1,0.2,1.9,0.5,2.5s0.9,0.8,1.6,0.8c0.4,0,0.8-0.1,1.2-0.3C317.9,54.6,318.3,54.3,318.6,54z"/>
	<path class="st3" d="M327.5,55.2c-0.1,0.1-0.3,0.2-0.5,0.4s-0.4,0.3-0.6,0.4c-0.3,0.1-0.5,0.2-0.8,0.3c-0.2,0.1-0.6,0.1-1.1,0.1
		c-0.4,0-0.7-0.1-1.1-0.2s-0.6-0.3-0.9-0.6c-0.2-0.2-0.4-0.6-0.6-0.9s-0.2-0.8-0.2-1.2c0-0.6,0.1-1.2,0.4-1.6
		c0.3-0.4,0.7-0.8,1.3-1.1c0.5-0.2,1.1-0.4,1.8-0.5s1.5-0.2,2.2-0.2V50c0-0.4,0-0.7-0.2-0.9c-0.1-0.2-0.3-0.4-0.5-0.5
		c-0.2-0.1-0.4-0.2-0.7-0.2c-0.3,0-0.6-0.1-0.9-0.1c-0.4,0-0.8,0-1.2,0.2s-1,0.3-1.4,0.5h-0.1v-1.6c0.3-0.1,0.7-0.2,1.2-0.3
		c0.5-0.1,1-0.2,1.6-0.2c0.6,0,1.1,0,1.6,0.2c0.4,0.1,0.8,0.3,1.2,0.5c0.3,0.2,0.6,0.6,0.7,1s0.2,0.9,0.2,1.5v6.2h-1.5L327.5,55.2
		L327.5,55.2z M327.5,54v-2.5c-0.4,0-0.8,0.1-1.4,0.1c-0.6,0.1-1,0.1-1.4,0.2c-0.4,0.1-0.7,0.3-1,0.6c-0.3,0.3-0.4,0.6-0.4,1.1
		c0,0.5,0.1,0.9,0.4,1.2c0.3,0.3,0.7,0.4,1.3,0.4c0.5,0,0.9-0.1,1.3-0.3C326.8,54.5,327.1,54.3,327.5,54z"/>
	<path class="st3" d="M338.1,56.2h-1.5v-0.9c-0.2,0.2-0.5,0.4-0.6,0.5c-0.2,0.1-0.4,0.2-0.6,0.4c-0.2,0.1-0.4,0.2-0.7,0.2
		s-0.5,0.1-0.8,0.1c-0.5,0-1-0.1-1.4-0.3c-0.4-0.2-0.8-0.5-1.1-0.9c-0.3-0.4-0.5-0.9-0.7-1.5s-0.2-1.3-0.2-2c0-0.8,0.1-1.5,0.3-2.1
		c0.2-0.6,0.5-1.1,0.9-1.5c0.3-0.4,0.7-0.7,1.2-0.9c0.5-0.2,1-0.3,1.5-0.3c0.5,0,0.9,0,1.2,0.2c0.3,0.1,0.7,0.3,1.1,0.5v-4h1.5
		L338.1,56.2L338.1,56.2z M336.6,54v-5.2c-0.4-0.2-0.7-0.3-1-0.4s-0.6-0.1-1-0.1c-0.8,0-1.4,0.3-1.9,0.9s-0.7,1.4-0.7,2.6
		c0,1.1,0.2,1.9,0.5,2.5s0.9,0.8,1.6,0.8c0.4,0,0.8-0.1,1.2-0.3C335.9,54.6,336.3,54.3,336.6,54z"/>
	<path class="st3" d="M344.3,56.4c-1.5,0-2.6-0.4-3.4-1.2c-0.8-0.8-1.2-2-1.2-3.5c0-1.5,0.4-2.7,1.2-3.5s1.8-1.3,3-1.3
		c0.6,0,1.1,0.1,1.5,0.2s0.8,0.4,1.1,0.8c0.3,0.3,0.6,0.8,0.8,1.3c0.2,0.5,0.3,1.1,0.3,1.8v0.8h-6.3c0,1.1,0.3,1.9,0.8,2.4
		s1.3,0.8,2.2,0.8c0.3,0,0.7,0,1-0.1c0.3-0.1,0.6-0.2,0.9-0.3c0.3-0.1,0.5-0.2,0.7-0.4c0.2-0.1,0.4-0.2,0.5-0.3h0.1v1.7
		c-0.2,0.1-0.4,0.2-0.7,0.3c-0.3,0.1-0.5,0.2-0.7,0.2c-0.3,0.1-0.6,0.1-0.8,0.2C345,56.4,344.7,56.4,344.3,56.4z M346.1,50.7
		c0-0.4-0.1-0.8-0.1-1.1s-0.2-0.5-0.4-0.8c-0.2-0.2-0.4-0.4-0.7-0.5s-0.6-0.2-1-0.2s-0.8,0.1-1,0.2s-0.5,0.3-0.8,0.5
		c-0.2,0.2-0.4,0.5-0.5,0.8s-0.2,0.6-0.2,1L346.1,50.7L346.1,50.7z"/>
	<path class="st3" d="M351.6,56.4c-0.6,0-1.2-0.1-1.7-0.2s-1-0.3-1.3-0.5V54h0.1c0.1,0.1,0.3,0.2,0.5,0.3c0.2,0.1,0.4,0.3,0.7,0.4
		c0.3,0.1,0.5,0.2,0.9,0.3s0.6,0.1,1,0.1c0.2,0,0.5,0,0.8-0.1s0.5-0.1,0.6-0.2c0.2-0.1,0.3-0.3,0.4-0.4c0.1-0.1,0.1-0.3,0.1-0.6
		c0-0.4-0.1-0.6-0.3-0.8c-0.2-0.2-0.5-0.3-1.1-0.5c-0.2,0-0.5-0.1-0.8-0.2s-0.6-0.1-0.9-0.2c-0.7-0.2-1.2-0.5-1.5-0.9
		c-0.3-0.4-0.5-0.9-0.5-1.5c0-0.8,0.3-1.5,0.9-2c0.6-0.5,1.4-0.8,2.5-0.8c0.5,0,1,0.1,1.5,0.2c0.5,0.1,0.9,0.3,1.3,0.5v1.6h-0.1
		c-0.4-0.3-0.8-0.5-1.3-0.7s-1-0.3-1.5-0.3c-0.5,0-0.9,0.1-1.3,0.3s-0.5,0.5-0.5,1c0,0.4,0.1,0.7,0.3,0.8s0.5,0.3,1,0.5
		c0.2,0.1,0.5,0.1,0.8,0.2s0.6,0.1,0.9,0.2c0.7,0.2,1.2,0.5,1.5,0.8s0.5,0.9,0.5,1.6c0,0.4-0.1,0.8-0.2,1.1
		c-0.1,0.3-0.4,0.7-0.7,0.9c-0.3,0.3-0.7,0.5-1.1,0.6C352.8,56.4,352.2,56.4,351.6,56.4z"/>
	<path class="st3" d="M368.8,56.2h-1.5v-0.9c-0.2,0.2-0.5,0.4-0.6,0.5c-0.2,0.1-0.4,0.2-0.6,0.4c-0.2,0.1-0.4,0.2-0.7,0.2
		s-0.5,0.1-0.8,0.1c-0.5,0-1-0.1-1.4-0.3c-0.4-0.2-0.8-0.5-1.1-0.9c-0.3-0.4-0.5-0.9-0.7-1.5s-0.2-1.3-0.2-2c0-0.8,0.1-1.5,0.3-2.1
		c0.2-0.6,0.5-1.1,0.9-1.5c0.3-0.4,0.7-0.7,1.2-0.9c0.5-0.2,1-0.3,1.5-0.3c0.5,0,0.9,0,1.2,0.2c0.3,0.1,0.7,0.3,1.1,0.5v-4h1.5
		L368.8,56.2L368.8,56.2z M367.3,54v-5.2c-0.4-0.2-0.7-0.3-1-0.4s-0.6-0.1-1-0.1c-0.8,0-1.4,0.3-1.9,0.9s-0.7,1.4-0.7,2.6
		c0,1.1,0.2,1.9,0.5,2.5s0.9,0.8,1.6,0.8c0.4,0,0.8-0.1,1.2-0.3C366.5,54.6,366.9,54.3,367.3,54z"/>
	<path class="st3" d="M375,56.4c-1.5,0-2.6-0.4-3.4-1.2c-0.8-0.8-1.2-2-1.2-3.5c0-1.5,0.4-2.7,1.2-3.5s1.8-1.3,3-1.3
		c0.6,0,1.1,0.1,1.5,0.2s0.8,0.4,1.1,0.8c0.3,0.3,0.6,0.8,0.8,1.3c0.2,0.5,0.3,1.1,0.3,1.8v0.8H372c0,1.1,0.3,1.9,0.8,2.4
		s1.3,0.8,2.2,0.8c0.3,0,0.7,0,1-0.1s0.6-0.2,0.9-0.3c0.3-0.1,0.5-0.2,0.7-0.4c0.2-0.1,0.4-0.2,0.5-0.3h0.1v1.7
		c-0.2,0.1-0.4,0.2-0.7,0.3c-0.3,0.1-0.5,0.2-0.7,0.2c-0.3,0.1-0.6,0.1-0.8,0.2C375.7,56.4,375.4,56.4,375,56.4z M376.8,50.7
		c0-0.4-0.1-0.8-0.1-1.1s-0.2-0.5-0.4-0.8c-0.2-0.2-0.4-0.4-0.7-0.5s-0.6-0.2-1-0.2s-0.8,0.1-1,0.2s-0.5,0.3-0.8,0.5
		c-0.2,0.2-0.4,0.5-0.5,0.8s-0.2,0.6-0.2,1L376.8,50.7L376.8,50.7z"/>
	<path class="st3" d="M383.9,56.2l4.1-12.1h2l4.1,12.1h-1.7l-1.1-3.4h-4.6l-1.1,3.4H383.9z M390.8,51.5l-1.9-5.7l-1.9,5.7H390.8z"/>
	<path class="st3" d="M396.6,56.2h-1.5V43.5h1.5V56.2z"/>
	<path class="st3" d="M401.6,56.4c-0.8,0-1.5-0.2-2-0.7c-0.5-0.5-0.7-1.2-0.7-2.2v-5h-1v-1.3h1v-2.6h1.5v2.6h2.8v1.3h-2.8v4.3
		c0,0.5,0,0.8,0,1.1c0,0.2,0.1,0.5,0.2,0.7c0.1,0.2,0.2,0.3,0.5,0.4c0.2,0.1,0.5,0.1,0.8,0.1c0.2,0,0.5,0,0.7-0.1
		c0.2-0.1,0.4-0.1,0.5-0.2h0.1v1.4c-0.3,0.1-0.6,0.2-0.9,0.2C402.2,56.4,401.9,56.4,401.6,56.4z"/>
	<path class="st3" d="M412,51.7c0,1.5-0.4,2.7-1.1,3.5c-0.7,0.8-1.7,1.2-3,1.2c-1.3,0-2.3-0.4-3-1.3c-0.7-0.9-1.1-2-1.1-3.5
		c0-1.5,0.4-2.7,1.1-3.5c0.8-0.8,1.7-1.3,3-1.3c1.2,0,2.2,0.4,3,1.3C411.6,49,412,50.2,412,51.7z M410.4,51.7c0-1.2-0.2-2.1-0.6-2.6
		c-0.4-0.6-1-0.9-1.8-0.9c-0.8,0-1.4,0.3-1.9,0.9c-0.4,0.6-0.6,1.5-0.6,2.6c0,1.1,0.2,2,0.6,2.6s1,0.9,1.9,0.9
		c0.8,0,1.4-0.3,1.8-0.9C410.2,53.7,410.4,52.8,410.4,51.7z"/>
	<path class="st3" d="M423.6,56.4c-0.8,0-1.5-0.1-2.2-0.4s-1.2-0.7-1.7-1.2s-0.9-1.2-1.1-2c-0.3-0.8-0.4-1.7-0.4-2.7
		s0.1-1.9,0.4-2.7s0.6-1.4,1.1-2c0.5-0.5,1.1-1,1.7-1.2c0.7-0.3,1.4-0.4,2.2-0.4c0.4,0,0.8,0,1.1,0.1s0.7,0.1,1,0.2
		c0.3,0.1,0.5,0.2,0.8,0.3c0.3,0.1,0.5,0.3,0.8,0.4v2h-0.1c-0.1-0.1-0.3-0.3-0.5-0.5c-0.2-0.2-0.5-0.4-0.8-0.5
		c-0.3-0.2-0.6-0.3-1-0.4c-0.4-0.1-0.8-0.2-1.3-0.2c-0.5,0-1,0.1-1.5,0.3s-0.9,0.5-1.2,0.9c-0.3,0.4-0.6,0.9-0.8,1.6
		c-0.2,0.6-0.3,1.3-0.3,2.1c0,0.8,0.1,1.5,0.3,2.2s0.5,1.1,0.8,1.5c0.3,0.4,0.7,0.7,1.2,0.9s0.9,0.3,1.5,0.3c0.5,0,0.9-0.1,1.3-0.2
		c0.4-0.1,0.8-0.3,1.1-0.4c0.3-0.2,0.6-0.3,0.8-0.5s0.4-0.3,0.5-0.5h0.1v1.9c-0.3,0.1-0.5,0.2-0.8,0.4c-0.2,0.1-0.5,0.2-0.9,0.3
		c-0.4,0.1-0.7,0.2-1,0.3C424.5,56.4,424.1,56.4,423.6,56.4z"/>
	<path class="st3" d="M436.3,51.7c0,1.5-0.4,2.7-1.1,3.5c-0.7,0.8-1.7,1.2-3,1.2c-1.3,0-2.3-0.4-3-1.3c-0.7-0.9-1.1-2-1.1-3.5
		c0-1.5,0.4-2.7,1.1-3.5c0.8-0.8,1.7-1.3,3-1.3c1.2,0,2.2,0.4,3,1.3C435.9,49,436.3,50.2,436.3,51.7z M434.7,51.7
		c0-1.2-0.2-2.1-0.6-2.6c-0.4-0.6-1-0.9-1.8-0.9c-0.8,0-1.4,0.3-1.9,0.9c-0.4,0.6-0.6,1.5-0.6,2.6c0,1.1,0.2,2,0.6,2.6
		s1,0.9,1.9,0.9c0.8,0,1.4-0.3,1.8-0.9C434.5,53.7,434.7,52.8,434.7,51.7z"/>
	<path class="st3" d="M440.3,56.4c-0.6,0-1.2-0.1-1.7-0.2s-1-0.3-1.3-0.5V54h0.1c0.1,0.1,0.3,0.2,0.5,0.3c0.2,0.1,0.4,0.3,0.7,0.4
		c0.3,0.1,0.5,0.2,0.9,0.3s0.6,0.1,1,0.1c0.2,0,0.5,0,0.8-0.1s0.5-0.1,0.6-0.2c0.2-0.1,0.3-0.3,0.4-0.4c0.1-0.1,0.1-0.3,0.1-0.6
		c0-0.4-0.1-0.6-0.3-0.8c-0.2-0.2-0.5-0.3-1.1-0.5c-0.2,0-0.5-0.1-0.8-0.2c-0.3-0.1-0.6-0.1-0.9-0.2c-0.7-0.2-1.2-0.5-1.5-0.9
		c-0.3-0.4-0.5-0.9-0.5-1.5c0-0.8,0.3-1.5,0.9-2c0.6-0.5,1.4-0.8,2.5-0.8c0.5,0,1,0.1,1.5,0.2c0.5,0.1,0.9,0.3,1.3,0.5v1.6h-0.1
		c-0.4-0.3-0.8-0.5-1.3-0.7s-1-0.3-1.5-0.3c-0.5,0-0.9,0.1-1.3,0.3s-0.5,0.5-0.5,1c0,0.4,0.1,0.7,0.3,0.8s0.5,0.3,1,0.5
		c0.2,0.1,0.5,0.1,0.8,0.2s0.6,0.1,0.9,0.2c0.7,0.2,1.2,0.5,1.5,0.8s0.5,0.9,0.5,1.6c0,0.4-0.1,0.8-0.2,1.1
		c-0.1,0.3-0.4,0.7-0.7,0.9c-0.3,0.3-0.7,0.5-1.1,0.6C441.4,56.4,440.9,56.4,440.3,56.4z"/>
	<path class="st3" d="M448,56.4c-0.8,0-1.5-0.2-2-0.7c-0.5-0.5-0.7-1.2-0.7-2.2v-5h-1v-1.3h1v-2.6h1.5v2.6h2.8v1.3h-2.8v4.3
		c0,0.5,0,0.8,0,1.1c0,0.2,0.1,0.5,0.2,0.7c0.1,0.2,0.2,0.3,0.5,0.4c0.2,0.1,0.5,0.1,0.8,0.1c0.2,0,0.5,0,0.7-0.1
		c0.2-0.1,0.4-0.1,0.5-0.2h0.1v1.4c-0.3,0.1-0.6,0.2-0.9,0.2C448.6,56.4,448.3,56.4,448,56.4z"/>
	<path class="st3" d="M458.4,51.7c0,1.5-0.4,2.7-1.1,3.5c-0.7,0.8-1.7,1.2-3,1.2c-1.3,0-2.3-0.4-3-1.3c-0.7-0.9-1.1-2-1.1-3.5
		c0-1.5,0.4-2.7,1.1-3.5c0.8-0.8,1.7-1.3,3-1.3c1.2,0,2.2,0.4,3,1.3C458,49,458.4,50.2,458.4,51.7z M456.8,51.7
		c0-1.2-0.2-2.1-0.6-2.6c-0.4-0.6-1-0.9-1.8-0.9c-0.8,0-1.4,0.3-1.9,0.9c-0.4,0.6-0.6,1.5-0.6,2.6c0,1.1,0.2,2,0.6,2.6
		s1,0.9,1.9,0.9c0.8,0,1.4-0.3,1.8-0.9C456.6,53.7,456.8,52.8,456.8,51.7z"/>
</g>
<path class="st2" d="M458.8,34.7H85.6c-0.6,0-1-0.4-1-1s0.4-1,1-1h373.1c0.6,0,1,0.4,1,1S459.3,34.7,458.8,34.7z"/>
</svg>
